<svg xmlns="http://www.w3.org/2000/svg" viewBox="0 0 750 500" style="enable-background:new 0 0 750 500" xml:space="preserve"><path style="fill:#ebebeb" d="m122.58 396.72-2.18.607-6.605-5.307-1.212-4.353s-3.428.731-1.445 6.32c1.984 5.589 1.151 4.257 1.151 4.257s-7.149 2.02-7.571 2.808c-.307.572 1.477 7.736 2.476 11.612.503 1.951 2.196 3.425 4.129 3.381.275-.006.544-.04.799-.111 1.785-.497 10.501-4.488 10.501-4.488l3.767-1.049-3.81-13.677zM128.49 393.787l2.812 15.288-3.734 1.04-4.07-14.614z"/><path style="fill:#f5f5f5" d="M515.578 445.373v17.498h-2.922v1.899h2.922v11.711h54.611v-10.656h-4.045v-2.321h4.045v-3.482h1.798v-1.583h-2.135v-13.067h-54.274z"/><path style="fill:#e0e0e0" d="M555.687 445.424v30.862h14.502V465.63h-4.045v-2.126l4.045.072v-3.482l1.833.003-.035-1.8-2.135-.052v-12.872z"/><path style="fill:#e0e0e0" d="M556.72 464.519c0 .107-9.882.194-22.069.194-12.191 0-22.071-.087-22.071-.194 0-.107 9.88-.194 22.071-.194 12.187 0 22.069.087 22.069.194zM556.72 462.741c0 .107-9.882.194-22.069.194-12.191 0-22.071-.087-22.071-.194 0-.107 9.88-.194 22.071-.194 12.187.001 22.069.087 22.069.194zM559.555 457.958c0 .107-9.882.194-22.069.194-12.192 0-22.071-.087-22.071-.194 0-.107 9.88-.194 22.071-.194 12.187 0 22.069.087 22.069.194zM559.828 470.993c0 .107-9.882.194-22.069.194-12.191 0-22.071-.087-22.071-.194 0-.107 9.88-.194 22.071-.194 12.187 0 22.069.087 22.069.194z"/><path style="fill:#f5f5f5" d="M603.799 424.582h12.176v14.476h-12.176z"/><path style="fill:#e0e0e0" d="M549.192 423.638h55.027v16.33h-55.027z"/><path style="fill:#e0e0e0" d="M616.344 425.012h-13.601v-1.373h13.601a.687.687 0 1 1 0 1.373zM616.344 439.968h-13.601v-1.373h13.601a.687.687 0 1 1 0 1.373z"/><path style="fill:#ebebeb" d="M593.391 423.638h6.501v16.33h-6.501zM554.425 423.819h6.501v16.33h-6.501z"/><path style="fill:#e0e0e0" d="M615.975 426.976c0 .04-2.635.072-5.885.072-3.251 0-5.886-.032-5.886-.072 0-.04 2.635-.072 5.886-.072 3.25 0 5.885.032 5.885.072zM615.975 429.147c0 .04-2.635.072-5.885.072-3.251 0-5.886-.032-5.886-.072 0-.04 2.635-.072 5.886-.072 3.25 0 5.885.032 5.885.072zM615.975 431.82c0 .04-2.635.072-5.885.072-3.251 0-5.886-.032-5.886-.072 0-.04 2.635-.072 5.886-.072 3.25-.001 5.885.032 5.885.072zM615.975 434.492c0 .04-2.635.072-5.885.072-3.251 0-5.886-.032-5.886-.072 0-.04 2.635-.072 5.886-.072 3.25 0 5.885.033 5.885.072zM615.975 437.165c0 .04-2.635.072-5.885.072-3.251 0-5.886-.032-5.886-.072 0-.04 2.635-.072 5.886-.072 3.25 0 5.885.032 5.885.072z"/><path style="fill:#ebebeb" d="M565.14 430.349h24.756v2.94H565.14z"/><path style="fill:#fafafa" d="M603.489 440.288h12.363v8.82h-12.363z"/><path style="fill:#f5f5f5" d="M551.014 439.968h52.613v9.46h-52.613z"/><path style="fill:#f5f5f5" d="M603.245 440.608h13.288a.32.32 0 1 0 0-.64h-13.288v.64zM603.245 449.428h13.288a.32.32 0 1 0 0-.64h-13.288v.64z"/><path style="fill:#e0e0e0" d="M615.852 441.963c0 .04-2.737.072-6.112.072-3.376 0-6.113-.032-6.113-.072 0-.04 2.736-.072 6.113-.072 3.375 0 6.112.032 6.112.072zM615.852 443.632c0 .04-2.737.072-6.112.072-3.376 0-6.113-.032-6.113-.072 0-.04 2.736-.072 6.113-.072 3.375 0 6.112.032 6.112.072zM615.852 445.301c0 .04-2.737.072-6.112.072-3.376 0-6.113-.032-6.113-.072 0-.04 2.736-.072 6.113-.072 3.375-.001 6.112.032 6.112.072zM615.852 446.969c0 .04-2.737.072-6.112.072-3.376 0-6.113-.032-6.113-.072 0-.04 2.736-.072 6.113-.072 3.375 0 6.112.032 6.112.072z"/><path style="fill:#ebebeb" d="M605.108 450.269h12.619v23.91h-12.619z"/><path style="fill:#e0e0e0" d="M545.876 449.428h59.233v25.925h-59.233z"/><path style="fill:#e0e0e0" d="M618.715 475.353h-15.226v-1.681h15.226c.464 0 .841.376.841.841a.842.842 0 0 1-.841.84zM618.715 451.109h-15.226v-1.681h15.226a.841.841 0 0 1 0 1.681zM617.727 453.474c0 .04-2.825.072-6.309.072-3.485 0-6.31-.032-6.31-.072 0-.04 2.824-.072 6.31-.072 3.484-.001 6.309.032 6.309.072zM617.727 456.54c0 .04-2.825.072-6.309.072-3.485 0-6.31-.032-6.31-.072 0-.04 2.824-.072 6.31-.072 3.484 0 6.309.032 6.309.072zM617.727 459.607c0 .04-2.825.072-6.309.072-3.485 0-6.31-.032-6.31-.072 0-.04 2.824-.072 6.31-.072 3.484 0 6.309.032 6.309.072zM617.727 462.673c0 .04-2.825.072-6.309.072-3.485 0-6.31-.032-6.31-.072 0-.04 2.824-.072 6.31-.072 3.484 0 6.309.033 6.309.072zM617.727 465.74c0 .04-2.825.072-6.309.072-3.485 0-6.31-.032-6.31-.072 0-.04 2.824-.072 6.31-.072 3.484 0 6.309.032 6.309.072zM617.727 468.807c0 .04-2.825.072-6.309.072-3.485 0-6.31-.032-6.31-.072 0-.04 2.824-.072 6.31-.072 3.484-.001 6.309.032 6.309.072zM617.727 471.873c0 .04-2.825.072-6.309.072-3.485 0-6.31-.032-6.31-.072 0-.04 2.824-.072 6.31-.072 3.484 0 6.309.032 6.309.072z"/><path style="fill:#ebebeb" d="M566.144 463.809v1.443c0 1.737-.868 2.73-2.544 2.73-1.675 0-2.544-.993-2.544-2.73v-5.646c0-1.737.869-2.73 2.544-2.73s2.544.993 2.544 2.73v1.055h-1.613v-1.163c0-.776-.341-1.07-.884-1.07s-.884.295-.884 1.07v5.863c0 .776.341 1.055.884 1.055s.884-.279.884-1.055v-1.551h1.613zM567.043 459.606c0-1.737.915-2.73 2.59-2.73 1.675 0 2.59.993 2.59 2.73v5.646c0 1.737-.915 2.73-2.59 2.73-1.675 0-2.59-.993-2.59-2.73v-5.646zm1.706 5.754c0 .776.341 1.07.884 1.07.543 0 .884-.295.884-1.07v-5.863c0-.776-.341-1.07-.884-1.07-.543 0-.884.295-.884 1.07v5.863zM573.323 457h1.706v9.306h2.807v1.551h-4.514V457zM578.44 459.606c0-1.737.915-2.73 2.59-2.73 1.675 0 2.59.993 2.59 2.73v5.646c0 1.737-.915 2.73-2.59 2.73-1.675 0-2.59-.993-2.59-2.73v-5.646zm1.706 5.754c0 .776.341 1.07.884 1.07.543 0 .884-.295.884-1.07v-5.863c0-.776-.341-1.07-.884-1.07-.543 0-.884.295-.884 1.07v5.863zM586.35 457v8.376c0 .776.341 1.055.884 1.055s.884-.279.884-1.055V457h1.613v8.267c0 1.737-.869 2.73-2.544 2.73s-2.544-.993-2.544-2.73V457h1.707zM594.46 467.857c-.093-.279-.155-.45-.155-1.334v-1.706c0-1.008-.341-1.38-1.117-1.38h-.589v4.421h-1.706V457h2.575c1.768 0 2.528.822 2.528 2.497v.853c0 1.117-.357 1.846-1.117 2.203.853.357 1.132 1.179 1.132 2.311v1.675c0 .527.015.915.186 1.318h-1.737zm-1.861-9.306v3.335h.667c.636 0 1.024-.279 1.024-1.148v-1.07c0-.776-.264-1.117-.869-1.117h-.822z"/><path style="fill:#e0e0e0" d="M565.776 443.694h-1.244l.065-.322h2.856l-.07.322h-1.239l-.64 3.203h-.367l.639-3.203zM569.849 444.247l-1.934 2.992c-.327.504-.574.66-.957.66-.247 0-.499-.086-.63-.237l.191-.262a.617.617 0 0 0 .468.191c.227 0 .403-.106.61-.428l.186-.282-.66-2.635h.362l.549 2.256 1.445-2.256h.37zM572.794 445.346c0 .911-.635 1.576-1.501 1.576-.504 0-.856-.206-1.007-.579l-.302 1.531h-.358l.721-3.627h.342l-.086.423a1.342 1.342 0 0 1 1.033-.443c.679.001 1.158.424 1.158 1.119zm-.363.02c0-.519-.317-.826-.872-.826-.66 0-1.143.519-1.143 1.244 0 .519.317.821.871.821.661 0 1.144-.519 1.144-1.239zM573.21 445.799c0-.902.64-1.571 1.531-1.571.735 0 1.204.433 1.204 1.118 0 .906-.64 1.576-1.531 1.576-.735 0-1.204-.443-1.204-1.123zm2.378-.433c0-.519-.317-.826-.871-.826-.66 0-1.148.523-1.148 1.244 0 .519.317.821.871.821.659 0 1.148-.519 1.148-1.239zM579.373 444.247l-.463 2.327c-.186.937-.68 1.325-1.541 1.325-.499 0-.907-.141-1.179-.398l.211-.272c.211.216.569.353.992.353.67 0 1.022-.308 1.148-.947l.061-.293c-.252.283-.61.454-1.058.454-.7 0-1.169-.408-1.169-1.068 0-.851.63-1.5 1.511-1.5.488 0 .881.201 1.032.604l.111-.585h.344zm-.604 1.063c0-.483-.327-.77-.877-.77-.67 0-1.153.494-1.153 1.168 0 .484.322.771.876.771.666 0 1.154-.494 1.154-1.169zM581.709 444.228l-.065.347c-.036 0-.061-.005-.101-.005-.564 0-.942.322-1.073.983l-.267 1.345h-.358l.524-2.65h.342l-.091.483c.238-.347.585-.503 1.089-.503zM584.745 444.247l-.529 2.65h-.343l.086-.418a1.358 1.358 0 0 1-1.033.443c-.68 0-1.153-.423-1.153-1.123 0-.907.635-1.571 1.496-1.571.504 0 .856.206 1.007.574l.111-.554h.358zm-.594 1.119c0-.519-.317-.826-.871-.826-.66 0-1.148.523-1.148 1.244 0 .519.317.821.871.821.659 0 1.148-.519 1.148-1.239zM588.183 445.346c0 .911-.634 1.576-1.501 1.576-.504 0-.857-.206-1.008-.579l-.302 1.531h-.358l.72-3.627h.342l-.086.423a1.342 1.342 0 0 1 1.033-.443c.682.001 1.16.424 1.16 1.119zm-.362.02c0-.519-.317-.826-.871-.826-.66 0-1.143.519-1.143 1.244 0 .519.317.821.871.821.659 0 1.143-.519 1.143-1.239zM591.39 445.089c0 .096-.01.196-.03.302l-.302 1.506h-.358l.302-1.511a1.42 1.42 0 0 0 .025-.241c0-.378-.227-.594-.685-.594-.564 0-.952.307-1.078.927l-.282 1.42h-.358l.745-3.737h.357l-.297 1.486c.252-.287.605-.417 1.013-.417.6-.002.948.32.948.859zM594.738 444.247l-1.934 2.992c-.327.504-.574.66-.957.66-.247 0-.499-.086-.63-.237l.191-.262a.617.617 0 0 0 .468.191c.227 0 .403-.106.61-.428l.187-.282-.66-2.635h.362l.549 2.256 1.445-2.256h.369z"/><path style="fill:#ebebeb" d="M178.6 257.073c-15.844 0-28.689-12.845-28.689-28.689s12.844-28.689 28.689-28.689c15.844 0 28.689 12.844 28.689 28.689-.001 15.844-12.845 28.689-28.689 28.689z"/><path style="fill:#fff" d="M178.599 210.095c-10.1 0-18.288 8.188-18.288 18.289 0 10.1 8.188 18.288 18.288 18.288 10.101 0 18.289-8.188 18.289-18.288 0-10.101-8.188-18.289-18.289-18.289zm0 3.181a15.02 15.02 0 0 1 9.211 3.159c-1.836 2.368-4.371 4.24-7.6 5.607a70.278 70.278 0 0 0-5.316-8.287 15.042 15.042 0 0 1 3.705-.479zm-6.815 1.643a67.966 67.966 0 0 1 5.39 8.201c-3.705 1.09-8.125 1.65-13.236 1.686a15.153 15.153 0 0 1 7.846-9.887zm-8.292 13.464c0-.13.018-.258.021-.389 5.864-.009 10.924-.682 15.163-2.016.355.723.696 1.451 1.021 2.183-5.149 1.609-9.394 4.909-12.705 9.875a15.025 15.025 0 0 1-3.5-9.653zm15.107 15.109a15.015 15.015 0 0 1-9.271-3.204c3-4.708 6.832-7.771 11.579-9.186a59.787 59.787 0 0 1 3.115 11.369 15.022 15.022 0 0 1-5.423 1.021zm8.386-2.55a62.71 62.71 0 0 0-2.925-10.51c2.858-.404 6.005-.299 9.447.299a15.113 15.113 0 0 1-6.522 10.211zm-4.145-13.521a62.45 62.45 0 0 0-1.169-2.56c3.519-1.524 6.348-3.594 8.456-6.22a15.043 15.043 0 0 1 3.537 8.892c-3.924-.643-7.533-.678-10.824-.112z"/><path style="fill:#ebebeb" d="m83.024 193.428-3.346 1.833-12.878-6.174-3.66-6.679s-5.346 2.516.055 10.928 3.522 6.546 3.522 6.546-10.958 6.06-11.347 7.514c-.284 1.057 5.393 12.129 8.52 18.108 1.574 3.01 4.918 4.778 8.074 3.964a5.463 5.463 0 0 0 1.269-.488c2.739-1.501 15.512-11.396 15.512-11.396l5.779-3.167-11.5-20.989zM91.597 186.346l10.482 24.011-5.73 3.14-12.287-22.423z"/><path style="fill:#f5f5f5" d="M484.493 92.069c.395 19.193-14.843 35.073-34.036 35.469-19.193.395-35.074-14.843-35.469-34.036-.396-19.193 14.843-35.074 34.036-35.469 19.193-.396 35.073 14.843 35.469 34.036z"/><path style="fill:#e0e0e0" d="M437.748 84.027c1.317-.108 2.512 1.345 2.669 3.246.156 1.902-.784 3.53-2.101 3.64-1.318.109-2.513-1.346-2.669-3.246-.157-1.901.784-3.531 2.101-3.64zM440.805 75.227c-.025.3-2.936.024-6.191 1.256-3.277 1.177-5.311 3.277-5.525 3.064-.224-.125 1.629-2.713 5.179-4.001 3.536-1.325 6.627-.56 6.537-.319zM459.848 83.573c-1.321-.054-2.454 1.447-2.533 3.353-.078 1.906.929 3.495 2.25 3.55 1.321.054 2.455-1.448 2.533-3.354.078-1.906-.929-3.496-2.25-3.549zM456.43 74.904c-.099-.236 2.958-1.129 6.544.049 3.6 1.141 5.559 3.65 5.34 3.784-.205.221-2.324-1.793-5.646-2.834-3.304-1.095-6.2-.7-6.238-.999zM466.889 92.431c.053.007.026.68-.242 1.862-.262 1.183-.871 2.859-2.019 4.718-1.14 1.858-2.902 3.848-5.301 5.485-2.383 1.639-5.46 2.859-8.835 3.063-3.379.147-6.566-.747-9.107-2.129-2.556-1.381-4.516-3.177-5.841-4.907-1.335-1.729-2.115-3.333-2.497-4.482-.39-1.149-.486-1.814-.435-1.826.207-.09.75 2.625 3.479 5.862 1.343 1.608 3.267 3.268 5.723 4.539 2.443 1.273 5.459 2.083 8.627 1.947 3.164-.194 6.078-1.312 8.375-2.832 2.311-1.517 4.051-3.368 5.221-5.107 2.379-3.503 2.638-6.26 2.852-6.193z"/><path style="fill:#f5f5f5" d="M697.594 160.459c.232 11.257-8.705 20.57-19.962 20.803-11.257.232-20.571-8.706-20.803-19.962-.232-11.257 8.706-20.571 19.962-20.803 11.257-.233 20.57 8.705 20.803 19.962z"/><path style="fill:#e0e0e0" d="M670.177 155.742c.773-.063 1.473.789 1.566 1.904.092 1.115-.46 2.071-1.232 2.135-.773.064-1.474-.789-1.566-1.904-.092-1.115.46-2.071 1.232-2.135zM671.97 150.581c-.015.176-1.722.014-3.631.736-1.922.691-3.115 1.922-3.24 1.797-.131-.073.956-1.591 3.038-2.347 2.073-.776 3.886-.328 3.833-.186zM683.139 155.475c-.775-.032-1.439.849-1.486 1.967-.046 1.118.545 2.05 1.32 2.082.775.032 1.44-.849 1.486-1.967.045-1.118-.545-2.05-1.32-2.082zM681.135 150.391c-.058-.139 1.735-.662 3.838.029 2.112.669 3.26 2.141 3.132 2.219-.12.129-1.363-1.052-3.312-1.662-1.938-.642-3.636-.41-3.658-.586zM687.269 160.671c.031.004.015.399-.142 1.092-.154.694-.511 1.677-1.184 2.767-.668 1.09-1.702 2.257-3.109 3.217a10.348 10.348 0 0 1-5.182 1.797 10.348 10.348 0 0 1-5.341-1.249c-1.499-.81-2.648-1.863-3.426-2.878-.783-1.014-1.24-1.955-1.465-2.628-.229-.674-.285-1.064-.255-1.071.121-.053.44 1.54 2.04 3.438a10.972 10.972 0 0 0 3.356 2.662 10.129 10.129 0 0 0 5.06 1.142 10.119 10.119 0 0 0 4.912-1.661 10.962 10.962 0 0 0 3.062-2.995c1.396-2.055 1.548-3.672 1.674-3.633z"/><path style="fill:#ebebeb" d="m158.33 291.162-2.168-.353-3.657-7.364.705-4.328s-3.317-.752-3.846 4.979c-.529 5.731-.72 4.219-.72 4.219s-7.12-1.132-7.812-.61c-.503.379-1.849 7.415-2.548 11.237-.352 1.924.539 3.911 2.26 4.659.244.107.496.187.749.228 1.775.289 11.077.323 11.077.323l3.745.61 2.215-13.6zM164.73 290.985l-3.749 14.611-3.713-.605 2.367-14.53zM638.798 71.361l-2.168-.353-3.657-7.364.705-4.328s-3.318-.752-3.846 4.979c-.529 5.731-.72 4.219-.72 4.219s-7.12-1.132-7.812-.61c-.503.379-1.849 7.415-2.548 11.236-.352 1.924.539 3.911 2.26 4.659.244.107.496.187.749.228 1.775.289 11.077.323 11.077.323l3.745.61 2.215-13.599zM645.198 71.184l-3.749 14.611-3.713-.605 2.367-14.53z"/><path transform="translate(-1.212 2.058)" style="fill:#fafafa" d="M341.579 193.207h89.714v71.724h-89.714z"/><path style="fill:#263238" d="M431.101 192.969s-.151.01-.435.016l-1.259.02-4.874.054-18.366.159-64.778.461.232-.234.408 71.715v.008l-.261-.258 89.712-.433-.215.217-.165-52.019-.021-14.539.004-3.836c.005-.87.018-1.331.018-1.331s.018.429.031 1.284l.045 3.795.133 14.489.39 52.154.001.216-.217.001-89.712.521-.26.002-.001-.26v-.008l-.354-71.715-.001-.233.233-.001 64.929-.229 18.315-.036 4.828.002 1.233.007c.274.003.407.011.407.011z"/><path transform="translate(-1.212 2.058)" style="fill:#ebebeb" d="M344.672 197.723h83.411v62.694h-83.411z"/><path style="fill:#e0e0e0" d="m344.839 260.638 28.926-39.124 18.176 24.284 12.17-13.098 24.138 27.494zM399.446 216.603a6.569 6.569 0 1 1-13.137.069 6.569 6.569 0 0 1 13.137-.069z"/><path style="fill:#fafafa" d="M65.694 476.095h618.611"/><path style="fill:#263238" d="M684.306 476.095c0 .144-138.492.26-309.291.26-170.858 0-309.32-.117-309.32-.26s138.462-.26 309.32-.26c170.799-.001 309.291.116 309.291.26z"/><path style="fill:#ff725e" d="M182.33 427.057c-13.516 0-24.473-10.957-24.473-24.473 0-13.516 10.957-24.473 24.473-24.473 13.516 0 24.473 10.957 24.473 24.473 0 13.516-10.957 24.473-24.473 24.473z"/><path style="fill-rule:evenodd;clip-rule:evenodd;fill:#fff" d="M195.748 401.905c-.179-7.071-6.003-12.747-13.173-12.747-7.083 0-12.859 5.547-13.167 12.507a12.985 12.985 0 0 0 1.876 7.331l-2.376 7.016 7.299-2.32a13.205 13.205 0 0 0 6.368 1.629c7.281 0 13.18-5.856 13.18-13.081-.001-.112-.001-.223-.007-.335zm-13.174 11.329c-2.252 0-4.344-.667-6.096-1.82l-4.258 1.357 1.382-4.085a10.882 10.882 0 0 1-2.11-6.448c0-.358.019-.716.056-1.067.543-5.566 5.282-9.928 11.026-9.928 5.818 0 10.601 4.473 11.045 10.138.025.284.037.568.037.858 0 6.065-4.973 10.995-11.082 10.995z"/><path style="fill-rule:evenodd;clip-rule:evenodd;fill:#fff" d="M188.615 404.879c-.327-.16-1.913-.938-2.209-1.042-.297-.111-.512-.16-.728.16-.216.321-.839 1.043-1.024 1.253-.191.216-.376.241-.703.08-.321-.16-1.364-.494-2.598-1.592-.956-.845-1.61-1.894-1.796-2.215-.185-.321-.018-.494.142-.654.148-.148.321-.376.487-.561l.117-.154a3.6 3.6 0 0 0 .204-.383c.111-.216.056-.401-.025-.561-.08-.16-.728-1.74-1-2.382-.265-.641-.537-.531-.728-.531-.185 0-.401-.031-.617-.031-.216 0-.568.08-.864.401-.296.321-1.129 1.098-1.129 2.678 0 .37.068.74.167 1.092.327 1.129 1.03 2.061 1.154 2.221.16.21 2.234 3.554 5.516 4.844 3.288 1.277 3.288.851 3.881.796.592-.05 1.913-.771 2.178-1.524.272-.747.272-1.388.191-1.524-.079-.13-.295-.21-.616-.371z"/><path style="fill:#ff725e" d="M115.536 270.152c-10.416 0-18.861-8.444-18.861-18.861 0-10.416 8.444-18.861 18.86-18.861 10.416 0 18.861 8.444 18.861 18.861.001 10.416-8.444 18.861-18.86 18.861z"/><path style="fill:#fff" d="M109.501 253.044c.294.121.558.005.644-.321.059-.226.2-.796.262-1.033.087-.323.053-.436-.185-.717-.518-.611-.849-1.403-.849-2.524 0-3.251 2.432-6.162 6.335-6.162 3.455 0 5.353 2.111 5.353 4.931 0 3.71-1.642 6.84-4.079 6.84-1.346 0-2.353-1.113-2.031-2.478.388-1.63 1.136-3.389 1.136-4.566 0-1.053-.565-1.932-1.735-1.932-1.376 0-2.482 1.424-2.482 3.33 0 1.214.411 2.036.411 2.036l-1.655 7.011c-.492 2.081-.074 4.632-.038 4.889.021.153.217.189.306.074.127-.166 1.766-2.19 2.322-4.211.158-.572.906-3.536.906-3.536.447.853 1.754 1.603 3.142 1.603 4.137 0 6.943-3.77 6.943-8.818 0-3.816-3.232-7.371-8.145-7.371-6.113 0-9.196 4.383-9.196 8.038 0 2.215.838 4.184 2.635 4.917z"/><path style="fill:#455a64" d="M92.878 360.241c-14.261 0-25.823-11.561-25.823-25.823 0-14.261 11.561-25.822 25.822-25.822s25.822 11.561 25.822 25.822c.002 14.262-11.559 25.823-25.821 25.823z"/><path style="fill:#fff" d="M92.878 322.811c3.781 0 4.228.014 5.721.083 1.38.063 2.13.294 2.629.488a4.398 4.398 0 0 1 1.628 1.059 4.39 4.39 0 0 1 1.059 1.628c.194.499.424 1.249.488 2.629.068 1.493.083 1.941.083 5.721 0 3.781-.015 4.228-.083 5.721-.063 1.38-.294 2.13-.488 2.629a4.385 4.385 0 0 1-1.059 1.628 4.39 4.39 0 0 1-1.628 1.059c-.499.194-1.249.425-2.629.488-1.493.068-1.94.082-5.721.082s-4.229-.014-5.721-.082c-1.38-.063-2.13-.294-2.629-.488a4.398 4.398 0 0 1-1.628-1.059 4.398 4.398 0 0 1-1.059-1.628c-.194-.499-.425-1.249-.488-2.629-.068-1.493-.082-1.941-.082-5.721 0-3.781.014-4.228.082-5.721.063-1.381.294-2.13.488-2.629a4.398 4.398 0 0 1 1.059-1.628 4.385 4.385 0 0 1 1.628-1.059c.499-.194 1.249-.425 2.629-.488 1.493-.069 1.941-.083 5.721-.083m0-2.551c-3.845 0-4.327.016-5.838.085-1.507.069-2.536.308-3.437.658a6.944 6.944 0 0 0-2.508 1.633 6.944 6.944 0 0 0-1.633 2.508c-.35.9-.59 1.93-.658 3.436-.069 1.51-.085 1.992-.085 5.838 0 3.845.016 4.327.085 5.838.068 1.507.308 2.536.658 3.437.361.931.845 1.72 1.633 2.508a6.944 6.944 0 0 0 2.508 1.633c.901.35 1.93.589 3.437.658 1.51.069 1.992.085 5.838.085 3.845 0 4.327-.016 5.838-.085 1.507-.069 2.536-.308 3.437-.658a6.944 6.944 0 0 0 2.508-1.633 6.944 6.944 0 0 0 1.633-2.508c.35-.901.589-1.93.658-3.437.069-1.51.085-1.992.085-5.838 0-3.845-.016-4.327-.085-5.838-.069-1.507-.308-2.536-.658-3.436a6.944 6.944 0 0 0-1.633-2.508 6.944 6.944 0 0 0-2.508-1.633c-.901-.35-1.93-.589-3.437-.658-1.511-.069-1.993-.085-5.838-.085"/><path style="fill:#fff" d="M92.878 327.148a7.271 7.271 0 1 0 0 14.542 7.271 7.271 0 0 0 0-14.542m0 11.99a4.719 4.719 0 1 1 0-9.437 4.719 4.719 0 0 1 0 9.437M102.135 326.86a1.7 1.7 0 1 1-3.399 0 1.7 1.7 0 0 1 3.399 0"/><path style="fill:#455a64" d="M155.808 194.749c-8.59 0-15.554-6.964-15.554-15.555 0-8.59 6.964-15.554 15.554-15.554s15.554 6.964 15.554 15.554c.001 8.591-6.963 15.555-15.554 15.555z"/><path style="fill:#fff" d="M153.438 188.596h3.786v-9.482h2.642l.282-3.175h-2.923v-1.808c0-.748.15-1.044.874-1.044h2.049v-3.295h-2.622c-2.818 0-4.088 1.241-4.088 3.616v2.531h-1.969v3.214h1.969v9.443z"/><circle transform="rotate(-6.975 542.283 100.557)" style="fill:#fff" cx="542.162" cy="100.581" r="22.43"/><path style="fill:#263238" d="M564.592 100.581s-.043-.492-.099-1.428a10.892 10.892 0 0 0-.188-1.721c-.106-.677-.207-1.462-.465-2.315-.394-1.733-1.204-3.781-2.483-5.952a22.28 22.28 0 0 0-5.682-6.338c-2.525-1.899-5.713-3.516-9.394-4.17-3.656-.631-7.784-.519-11.717.973-1.979.686-3.889 1.724-5.644 3.035-.907.622-1.699 1.4-2.53 2.15-.75.83-1.539 1.642-2.185 2.585-2.745 3.648-4.295 8.342-4.339 13.177.042 4.837 1.591 9.533 4.337 13.182.647.942 1.435 1.755 2.186 2.585.83.75 1.623 1.528 2.53 2.151 1.755 1.312 3.665 2.35 5.645 3.036 3.934 1.492 8.063 1.604 11.719.973 3.681-.654 6.869-2.271 9.395-4.171a22.303 22.303 0 0 0 5.681-6.338c1.278-2.171 2.088-4.219 2.482-5.952.258-.853.359-1.638.465-2.315.13-.674.171-1.252.187-1.721.056-.933.099-1.426.099-1.426s-.007.492-.045 1.431a10.71 10.71 0 0 1-.162 1.729c-.099.68-.192 1.47-.443 2.329-.381 1.745-1.18 3.81-2.455 6.003a22.375 22.375 0 0 1-5.695 6.412c-2.539 1.925-5.752 3.567-9.468 4.238-3.691.647-7.863.543-11.843-.959-2.003-.691-3.936-1.738-5.712-3.062-.918-.629-1.721-1.415-2.561-2.173-.76-.838-1.558-1.661-2.213-2.613-2.78-3.69-4.351-8.443-4.394-13.337.044-4.892 1.615-9.644 4.395-13.332.655-.952 1.453-1.774 2.213-2.613.84-.758 1.643-1.544 2.561-2.172 1.776-1.324 3.709-2.371 5.711-3.062 3.98-1.502 8.151-1.606 11.842-.959 3.716.67 6.929 2.312 9.468 4.237a22.349 22.349 0 0 1 5.695 6.412c1.275 2.193 2.075 4.258 2.455 6.003.251.859.345 1.649.443 2.329.122.678.155 1.258.163 1.729.038.938.045 1.43.045 1.43z"/><path style="fill:none" d="M542.162 85.93c-8.079 0-14.651 6.573-14.651 14.651s6.573 14.652 14.651 14.652c8.079 0 14.652-6.573 14.652-14.652s-6.573-14.651-14.652-14.651z"/><path style="fill:#ff725e" d="M542.162 85.93s1.309-.176 3.608.334c2.253.504 5.597 1.943 8.221 5.314 1.282 1.67 2.379 3.79 2.834 6.249.44 2.442.376 5.207-.616 7.848a14.057 14.057 0 0 1-2.026 3.791 14.075 14.075 0 0 1-3.171 3.172c-2.445 1.848-5.599 2.899-8.848 2.928-3.25-.028-6.405-1.078-8.851-2.927a14.105 14.105 0 0 1-3.172-3.173 14.052 14.052 0 0 1-2.027-3.792c-.992-2.642-1.055-5.407-.616-7.849.455-2.459 1.553-4.579 2.835-6.249 2.624-3.371 5.968-4.809 8.221-5.313 2.3-.509 3.608-.333 3.608-.333.007.092-1.306.007-3.544.586-2.195.571-5.417 2.046-7.909 5.348-1.217 1.636-2.251 3.694-2.666 6.065-.399 2.356-.318 5.012.65 7.537a13.473 13.473 0 0 0 1.961 3.622 13.501 13.501 0 0 0 3.047 3.025c2.345 1.762 5.358 2.758 8.464 2.786 3.105-.029 6.116-1.025 8.461-2.787a13.497 13.497 0 0 0 3.046-3.025 13.516 13.516 0 0 0 1.961-3.622c.968-2.525 1.049-5.181.65-7.536-.414-2.371-1.448-4.429-2.665-6.065-2.492-3.302-5.714-4.777-7.909-5.348-2.24-.579-3.554-.494-3.547-.586z"/><path style="fill:none" d="M542.162 95.931a4.656 4.656 0 0 0-4.651 4.651 4.656 4.656 0 0 0 4.651 4.651 4.656 4.656 0 0 0 4.651-4.651 4.656 4.656 0 0 0-4.651-4.651z"/><path style="fill:#ff725e" d="M542.162 95.931c-.003-.031.416-.118 1.167.02.734.137 1.838.581 2.716 1.675.878 1.055 1.411 2.862.773 4.644-.58 1.765-2.453 3.315-4.655 3.296-2.204.02-4.077-1.53-4.657-3.296-.638-1.783-.105-3.589.774-4.645.878-1.094 1.981-1.538 2.716-1.675.75-.138 1.169-.05 1.166-.019.002.06-.414.065-1.103.272a4.653 4.653 0 0 0-2.404 1.709c-.749.99-1.159 2.601-.571 4.148.541 1.534 2.175 2.855 4.079 2.839 1.904.016 3.537-1.304 4.078-2.839.588-1.547.178-3.158-.571-4.148a4.662 4.662 0 0 0-2.404-1.71c-.69-.207-1.106-.211-1.104-.271z"/><path style="fill:#f5f5f5" d="M518.265 116.745c7.749-5.404 16.149-10.76 23.898-16.163"/><path style="fill:#263238" d="M542.161 100.582c.041.061-5.275 3.729-11.873 8.192-6.601 4.464-11.983 8.033-12.024 7.971-.041-.061 5.274-3.728 11.875-8.192 6.597-4.463 11.98-8.032 12.022-7.971z"/><path style="fill:#263238" d="M520.893 115.182c-.003.074-1.243.088-2.771.033-1.528-.056-2.764-.16-2.762-.234.003-.074 1.243-.088 2.771-.033 1.529.056 2.765.16 2.762.234z"/><path style="fill:#263238" d="M519.954 118.821c-.072-.016.05-.865.273-1.897.223-1.032.461-1.856.534-1.841.072.015-.05.865-.273 1.897-.224 1.032-.462 1.857-.534 1.841zM521.309 118.394c-.073-.013.026-.899.221-1.98.194-1.08.411-1.945.483-1.932.073.013-.026.899-.221 1.98-.194 1.08-.411 1.945-.483 1.932zM518.127 113.586c.017-.072.879.07 1.925.317s1.881.505 1.864.577c-.017.072-.879-.07-1.925-.317s-1.881-.505-1.864-.577z"/><path style="fill:#ff725e" d="M635.589 218.801c.012-.003.045.092.098.28.04.19.102.476.113.856.033.753-.129 1.893-.773 3.155-.635 1.269-1.774 2.566-3.132 3.923l-4.452 4.652-.141.148-.163-.131-4.776-3.836c-1.651-1.341-3.591-2.77-4.593-5.014-.625-1.372-.767-3.029-.104-4.389.64-1.343 1.852-2.337 3.208-2.705 1.369-.398 2.82-.025 3.873.714 1.063.744 1.805 1.852 2.031 3.028l-.42.023c.222-2.06 1.725-3.554 3.242-4.081 1.563-.567 3.069-.094 4.001.528.969.631 1.477 1.419 1.726 1.965.123.277.197.498.228.652.032.151.044.23.034.232-.032.009-.103-.306-.379-.828a4.784 4.784 0 0 0-1.742-1.815c-.911-.564-2.325-.962-3.752-.411-1.396.51-2.764 1.936-2.937 3.794l-.133 1.43-.288-1.407c-.216-1.054-.901-2.059-1.876-2.73-.972-.665-2.266-.985-3.481-.623-1.212.333-2.314 1.246-2.881 2.449-.583 1.204-.467 2.686.114 3.968.922 2.081 2.781 3.483 4.437 4.833l4.751 3.868-.304.016 4.508-4.597c1.379-1.334 2.511-2.574 3.16-3.784.657-1.203.856-2.294.869-3.027.013-.738-.101-1.129-.066-1.136z"/><path style="fill:#ff725e" d="M610.535 206.069s.024.213.05.611l.108 1.754.382 6.695 1.324 24.434-.197-.178 21.51-1.115.225-.012.012.225.524 10.223-.413-.147 9.704-10.743.069-.076.103-.005 23.579-1.187 7.234-.362-.241.267-1.657-33.505.246.222-45.006 2.138-12.905.583-3.445.144-.894.031c-.202.007-.307.008-.312.003s.091-.014.284-.028l.866-.057 3.395-.199 12.846-.706 45.148-2.376.234-.012.012.235 1.697 33.503.013.254-.254.013-7.234.363-23.58 1.174.172-.081-9.721 10.728-.385.425-.028-.573-.5-10.224.236.214-21.514 1.04-.188.009-.009-.187-1.129-24.559-.286-6.658-.066-1.722c-.013-.387-.009-.576-.009-.576z"/><path style="fill:#263238" d="m645.859 221.694-2.637.132.128 2.568-.625.031-.128-2.568-2.639.132-.029-.597 2.638-.132-.13-2.582.625-.031.13 2.582 2.638-.132.029.597zM649.589 216.33l.486 9.719-.708.035-.454-9.08-2.374.119-.032-.639 3.082-.154zM652.293 221.067c-.152-3.04 1.322-5.007 3.558-5.119 2.235-.112 3.898 1.698 4.051 4.738.152 3.04-1.322 5.007-3.558 5.119-2.236.112-3.899-1.698-4.051-4.738zm6.9-.346c-.136-2.708-1.477-4.213-3.31-4.121s-3.017 1.723-2.882 4.431c.136 2.707 1.478 4.212 3.311 4.121 1.831-.092 3.017-1.724 2.881-4.431zM661.432 220.609c-.151-3.04 1.322-5.007 3.558-5.119 2.235-.112 3.898 1.698 4.051 4.738.152 3.04-1.322 5.007-3.558 5.12-2.235.111-3.898-1.699-4.051-4.739zm6.901-.345c-.136-2.708-1.478-4.213-3.311-4.121-1.832.091-3.017 1.723-2.882 4.431.136 2.707 1.478 4.212 3.311 4.121 1.832-.093 3.017-1.724 2.882-4.431z"/><path style="fill:#ff725e" d="M620.028 132.816h6.773v26.964h-6.773zM608.892 130.774h6.773v29.006h-6.773zM598.094 134.366h6.773v25.415h-6.773zM587.132 138.334h6.773v21.446h-6.773z"/><path style="fill:#263238" d="M631.937 159.878c0 .144-11.131.26-24.858.26-13.732 0-24.86-.117-24.86-.26s11.128-.26 24.86-.26c13.727 0 24.858.116 24.858.26zM629.11 134.484c-.005.053-.777-.08-2.167-.005-1.374.097-3.417.435-5.567 1.676a11.992 11.992 0 0 0-3.099 2.549c-.965 1.09-1.828 2.404-2.859 3.719-1.022 1.302-2.301 2.643-4.018 3.396-1.695.776-3.621 1.021-5.538 1.089-1.927.068-3.793-.026-5.579.055-1.787.078-3.504.295-5.092.692-3.183.781-5.773 2.447-7.235 4.444-1.506 1.974-1.982 4.013-2.021 5.383-.012 1.387.266 2.133.205 2.146 0 0-.356-.721-.408-2.148-.023-1.406.411-3.533 1.929-5.602.759-1.018 1.757-2.033 3.035-2.827 1.26-.812 2.755-1.43 4.376-1.861 1.625-.421 3.375-.651 5.188-.737 1.817-.089 3.687.002 5.583-.066 1.888-.066 3.743-.305 5.346-1.033 1.619-.703 2.833-1.955 3.853-3.23 1.023-1.282 1.907-2.6 2.912-3.707a12.185 12.185 0 0 1 3.24-2.583 12.51 12.51 0 0 1 5.739-1.558c.707-.006 1.254.04 1.621.093.368.058.558.097.556.115z"/><path style="fill:#263238" d="M583.115 128.087c.144 0 .26 7.234.26 16.155 0 8.924-.117 16.157-.26 16.157-.144 0-.26-7.232-.26-16.157-.001-8.921.116-16.155.26-16.155zM523.267 193.594c.029.143-1.04.475-2.36.843-1.321.366-2.407.634-2.456.497-.049-.133.974-.627 2.317-.999 1.341-.374 2.472-.48 2.499-.341zM533.206 192.752c-.006.146-1.122.212-2.492.246-1.37.031-2.488.019-2.501-.126-.014-.141 1.098-.362 2.489-.394 1.389-.035 2.51.132 2.504.274zM543.076 194.245c-.039.14-1.142-.048-2.484-.329-1.342-.284-2.427-.556-2.406-.7.02-.141 1.153-.097 2.514.19 1.36.286 2.415.703 2.376.839zM552.351 197.937c-.07.128-1.102-.308-2.346-.887-1.244-.581-2.24-1.091-2.187-1.227.051-.132 1.146.166 2.407.755 1.263.587 2.195 1.235 2.126 1.359zM560.492 203.697c-.099.107-.992-.566-2.061-1.423-1.068-.859-1.916-1.587-1.833-1.707.08-.117 1.075.428 2.159 1.301 1.086.871 1.833 1.726 1.735 1.829z"/><path style="fill:#ff725e" d="M611.761 310.965a4.767 4.767 0 1 1-8.88-3.472 4.767 4.767 0 0 1 8.88 3.472zM627.673 306.948a4.767 4.767 0 1 1-8.88-3.472 4.767 4.767 0 0 1 8.88 3.472zM620.316 325.769c-1.043 2.668-3.877 4.054-6.329 3.095-2.452-.959-3.595-3.899-2.552-6.567 1.043-2.668 3.877-4.054 6.329-3.095 2.452.959 3.595 3.899 2.552 6.567z"/><path style="fill:#ff725e" d="M614.789 322.95c-.299.205-2.593-2.63-5.123-6.331-2.531-3.702-4.339-6.868-4.04-7.073.299-.204 2.593 2.63 5.124 6.332 2.529 3.701 4.338 6.868 4.039 7.072zM622.425 304.537c.102.348-3.006 1.565-6.941 2.719-3.936 1.154-7.209 1.807-7.311 1.459-.102-.348 3.005-1.565 6.942-2.719 3.935-1.154 7.209-1.807 7.31-1.459zM553.208 354.802c-.035-.001-.079-.403-.132-1.161a9.696 9.696 0 0 0-.155-1.394c-.085-.548-.163-1.182-.366-1.873-.307-1.401-.942-3.058-1.945-4.818a18.063 18.063 0 0 0-4.48-5.161c-1.998-1.557-4.524-2.897-7.456-3.477-2.912-.561-6.21-.539-9.371.585-1.59.513-3.13 1.308-4.552 2.322-.734.479-1.379 1.087-2.055 1.668-.612.649-1.255 1.281-1.787 2.02-2.254 2.856-3.573 6.562-3.703 10.411-.058 3.853 1.079 7.619 3.192 10.582.496.764 1.107 1.427 1.687 2.105.647.614 1.261 1.252 1.971 1.766 1.371 1.082 2.871 1.951 4.434 2.541 3.103 1.276 6.397 1.457 9.333 1.039 2.957-.437 5.545-1.653 7.616-3.111a18.044 18.044 0 0 0 4.725-4.937c1.087-1.709 1.802-3.333 2.176-4.718.237-.68.345-1.31.457-1.853.13-.54.188-1.006.223-1.384.09-.754.154-1.153.188-1.152.034.001.038.402.014 1.171a8.139 8.139 0 0 1-.13 1.415c-.082.557-.163 1.205-.375 1.908-.325 1.43-1.002 3.121-2.078 4.912a18.298 18.298 0 0 1-4.784 5.213c-2.125 1.554-4.81 2.863-7.9 3.358-3.068.477-6.525.318-9.802-.999-1.65-.61-3.236-1.513-4.687-2.646-.75-.54-1.403-1.206-2.086-1.852-.617-.71-1.263-1.409-1.789-2.212-2.239-3.118-3.454-7.102-3.389-11.17.134-4.064 1.541-7.983 3.928-10.988.565-.777 1.245-1.443 1.894-2.122.714-.612 1.398-1.246 2.174-1.748 1.504-1.06 3.132-1.886 4.809-2.415 3.337-1.156 6.798-1.147 9.838-.522 3.062.644 5.68 2.082 7.727 3.737a18.284 18.284 0 0 1 4.525 5.439c.988 1.842 1.582 3.563 1.837 5.008.177.713.227 1.364.282 1.924.074.559.077 1.035.061 1.42-.011.769-.034 1.169-.069 1.169z"/><path style="fill:#ff725e" d="M549.556 343.396c.04.056-.289.343-.925.815l-1.175.843c-.233.159-.476.34-.747.51l-.899.47c-2.443 1.412-6.313 2.853-10.733 2.703l-1.625-.072-1.559-.244c-.255-.043-.509-.077-.758-.127l-.728-.194c-.479-.133-.953-.245-1.404-.39-1.792-.623-3.339-1.349-4.554-2.098-2.446-1.479-3.637-2.825-3.545-2.911.099-.113 1.429 1.013 3.893 2.293 1.224.65 2.748 1.283 4.483 1.834.436.127.893.223 1.354.341l.7.174.726.11 1.49.219 1.549.063c4.202.145 7.924-1.115 10.393-2.334l.909-.395c.277-.145.529-.3.77-.434l1.246-.687c.693-.368 1.099-.545 1.139-.489zM520.35 365.592c-.04-.056.289-.343.925-.815l1.175-.843c.233-.159.476-.34.748-.51l.899-.47c2.443-1.412 6.313-2.853 10.733-2.703l1.625.072 1.559.244c.255.043.509.077.758.127l.728.194c.479.133.953.245 1.404.39 1.791.623 3.339 1.349 4.554 2.098 2.447 1.479 3.637 2.825 3.545 2.911-.099.113-1.428-1.013-3.893-2.293-1.224-.65-2.748-1.283-4.483-1.834-.437-.127-.894-.223-1.354-.341l-.7-.174-.726-.11-1.49-.219-1.549-.063c-4.202-.145-7.924 1.114-10.393 2.334l-.909.395c-.277.145-.529.3-.77.434l-1.246.687c-.694.368-1.1.546-1.14.489zM553.198 355.226c-.007.277-8.185.303-18.263.059-10.082-.245-18.247-.668-18.24-.945.007-.277 8.183-.303 18.265-.058 10.078.244 18.245.667 18.238.944z"/><path style="fill:#ff725e" d="M534.104 372.593c-.277-.007-.303-8.182-.059-18.257.245-10.079.668-18.241.945-18.235.277.007.303 8.18.059 18.259-.244 10.076-.668 18.24-.945 18.233z"/><path style="fill:#ff725e" d="M534.105 372.566c-.069.106-2.08-1.258-4.401-4.345a24.564 24.564 0 0 1-3.263-5.924 22.025 22.025 0 0 1-1.413-8.18c.053-2.978.801-5.764 1.843-8.097 1.042-2.343 2.35-4.256 3.565-5.742 2.458-2.971 4.486-4.288 4.554-4.182.099.114-1.738 1.608-3.995 4.619-1.116 1.505-2.321 3.4-3.276 5.672-.955 2.264-1.638 4.919-1.688 7.749a22.235 22.235 0 0 0 1.278 7.843c.828 2.322 1.928 4.278 2.973 5.831 2.114 3.112 3.925 4.646 3.823 4.756zM535.4 336.107c.069-.106 2.08 1.258 4.401 4.345a24.564 24.564 0 0 1 3.263 5.924 22.025 22.025 0 0 1 1.413 8.18c-.053 2.978-.801 5.764-1.843 8.097-1.042 2.343-2.35 4.256-3.565 5.742-2.458 2.971-4.486 4.288-4.554 4.182-.099-.114 1.738-1.608 3.995-4.619 1.116-1.505 2.321-3.4 3.276-5.672.955-2.264 1.638-4.919 1.688-7.749a22.235 22.235 0 0 0-1.278-7.843c-.828-2.322-1.928-4.278-2.973-5.831-2.114-3.113-3.925-4.646-3.823-4.756z"/><path style="fill:#263238" d="M534.537 139.211c-.143-.012-.213-.579-.156-1.266.057-.687.219-1.235.363-1.223.143.012.213.579.156 1.266-.057.687-.22 1.235-.363 1.223zM533.676 149.51c-.143-.012-.163-1.175-.043-2.598.119-1.423.332-2.567.475-2.555.143.012.163 1.175.043 2.599-.119 1.422-.332 2.566-.475 2.554zM532.804 159.814c-.143-.012-.162-1.175-.041-2.598.121-1.423.335-2.566.478-2.554.143.012.161 1.175.041 2.598-.12 1.422-.334 2.566-.478 2.554zM531.917 170.117c-.143-.012-.16-1.175-.036-2.597.123-1.422.339-2.565.482-2.552.143.012.16 1.175.036 2.597-.123 1.421-.339 2.564-.482 2.552zM531 180.415c-.143-.013-.155-1.176-.027-2.597.128-1.422.348-2.564.492-2.551.143.013.155 1.176.027 2.598-.129 1.421-.349 2.563-.492 2.55zM530.214 188.036c-.14-.033-.189-.606-.11-1.281.08-.675.261-1.211.404-1.198.143.013.193.587.11 1.281-.083.695-.264 1.231-.404 1.198zM561.039 192.274c.114.087-.471 1.048-1.308 2.146-.837 1.098-1.608 1.918-1.723 1.831-.114-.087.471-1.048 1.308-2.146.837-1.099 1.609-1.918 1.723-1.831zM567.101 184.32c.114.087-.471 1.048-1.308 2.146-.837 1.098-1.608 1.918-1.723 1.831-.114-.087.471-1.048 1.308-2.146.837-1.098 1.608-1.918 1.723-1.831zM573.162 176.367c.114.087-.471 1.048-1.308 2.146-.837 1.098-1.608 1.918-1.723 1.831-.114-.087.471-1.048 1.308-2.146.838-1.098 1.609-1.918 1.723-1.831zM579.224 168.414c.114.087-.471 1.048-1.308 2.146-.837 1.098-1.608 1.918-1.723 1.831-.114-.087.471-1.048 1.308-2.146.837-1.099 1.608-1.918 1.723-1.831zM579.69 224.997c-.136.054-.651-.938-1.25-2.17-.596-1.234-1.056-2.252-.93-2.326.122-.072.792.845 1.398 2.099.608 1.252.913 2.346.782 2.397zM582.264 234.632c-.145.019-.406-1.068-.679-2.411-.27-1.344-.454-2.446-.313-2.485.137-.038.549 1.018.824 2.382.276 1.363.308 2.496.168 2.514zM582.591 244.611c-.143-.011-.237-1.133-.21-2.504.028-1.372.167-2.488.311-2.494.144-.006.238 1.115.21 2.504-.029 1.389-.168 2.505-.311 2.494zM580.943 254.463c-.139-.038-.017-1.157.272-2.499.289-1.342.639-2.412.781-2.389.142.023.02 1.141-.272 2.499-.293 1.357-.643 2.427-.781 2.389zM577.572 263.868c-.13-.061.184-1.141.703-2.413.519-1.272 1.049-2.264 1.185-2.217.136.048-.179 1.128-.703 2.413s-1.055 2.278-1.185 2.217zM572.645 272.559c-.118-.082.377-1.093 1.105-2.258s1.421-2.051 1.546-1.982c.126.07-.369 1.081-1.105 2.258s-1.428 2.064-1.546 1.982zM566.201 280.187c-.098-.105.583-1 1.521-1.999.939-.999 1.79-1.735 1.901-1.643.111.091-.57.987-1.521 1.999-.952 1.012-1.803 1.748-1.901 1.643zM558.305 286.301c-.075-.123.777-.858 1.904-1.641 1.127-.784 2.112-1.327 2.201-1.214.089.113-.763.848-1.904 1.641-1.141.794-2.126 1.337-2.201 1.214zM549.349 290.733c-.05-.135.931-.689 2.19-1.238 1.26-.549 2.333-.889 2.398-.761.065.128-.915.683-2.19 1.238-1.274.555-2.348.896-2.398.761zM539.714 293.366c-.023-.142 1.044-.499 2.384-.797 1.34-.298 2.458-.427 2.497-.288.039.138-1.028.495-2.384.797-1.356.301-2.474.43-2.497.288zM529.752 294.083c.005-.144 1.122-.285 2.493-.315 1.372-.03 2.492.062 2.504.205.012.143-1.104.285-2.493.315-1.388.03-2.509-.062-2.504-.205zM519.859 292.752c.036-.139 1.156-.046 2.503.208 1.347.255 2.424.577 2.406.72-.018.143-1.138.05-2.503-.209-1.364-.257-2.441-.58-2.406-.719z"/><path style="fill:#263238" d="M586.445 233.236c0 .144-1.119.26-2.5.26s-2.5-.117-2.5-.26c0-.144 1.119-.26 2.5-.26s2.5.116 2.5.26zM596.445 233.236c0 .144-1.119.26-2.5.26s-2.5-.117-2.5-.26c0-.144 1.119-.26 2.5-.26s2.5.116 2.5.26zM604.961 233.236c0 .144-.787.26-1.758.26s-1.758-.117-1.758-.26c0-.144.787-.26 1.758-.26s1.758.116 1.758.26zM572.244 281.13c-.092.111-1.026-.517-2.086-1.401-1.06-.885-1.845-1.691-1.753-1.801.092-.11 1.026.517 2.087 1.402 1.059.883 1.844 1.69 1.752 1.8zM579.923 287.536c-.092.111-1.026-.517-2.087-1.401-1.06-.885-1.845-1.691-1.753-1.801.092-.11 1.026.517 2.087 1.402 1.06.883 1.845 1.689 1.753 1.8zM587.602 293.941c-.092.11-1.026-.517-2.086-1.401-1.06-.885-1.845-1.691-1.753-1.802.092-.11 1.026.517 2.087 1.402 1.059.884 1.844 1.691 1.752 1.801zM594.407 299.618c-.092.111-.831-.354-1.65-1.037-.819-.683-1.408-1.326-1.316-1.437.092-.11.83.354 1.65 1.037.819.683 1.408 1.326 1.316 1.437zM532.587 298.596c-.144 0-.26-1.119-.26-2.5s.117-2.5.26-2.5.26 1.119.26 2.5-.117 2.5-.26 2.5zM532.587 308.596c-.144 0-.26-1.119-.26-2.5s.117-2.5.26-2.5.26 1.119.26 2.5-.117 2.5-.26 2.5zM532.587 318.596c-.144 0-.26-1.119-.26-2.5s.117-2.5.26-2.5.26 1.119.26 2.5-.117 2.5-.26 2.5zM532.587 325.331c-.144 0-.26-.388-.26-.867s.117-.868.26-.868.26.388.26.868c0 .478-.117.867-.26.867z"/><path style="fill:#fafafa" d="m125.322 75.057 18.197-23.34 4.454 29.352 24.009-.813-17.799 23.374 23.634 18.268-30.174-11.201-4.221 29.381-20.247-19.702L97.66 138.11l5.586-25.785-28.957-4.558 22.522-13.292L83.682 71.83l22.861 12.957 2.383-32.087z"/><path style="fill:#263238" d="M154.183 103.63s.559.415 1.62 1.224l4.686 3.584 17.839 13.688.611.469-.713-.295c-4.122-1.702-8.812-3.386-13.953-5.177-5.136-1.801-10.734-3.696-16.572-6.097l.194-.109-4.472 29.16-.049.318-.23-.225-20.198-19.815.23.02-25.117 17.457-.398.277.098-.475 5.25-25.372.168.223-28.766-4.517-.57-.09.499-.29 19.546-11.364 3.039-1.766-.065.296c-2.5-3.638-4.697-7.422-6.845-11.188a415.745 415.745 0 0 1-6.183-11.32l-.323-.612.604.34 22.841 12.852-.297.16 1.134-16.487.492-8.034.203-3.962.074-1.966.019-.977-.004-.483c-.001-.141-.032-.358-.017-.378l.236-.322.071.098 16.629 22.767-.284-.003 18.03-23.593.223-.292.058.363 4.694 29.196-.14-.11 23.902-.747.209-.007-.126.166-13.253 17.389-3.439 4.496c-.776 1.012-1.185 1.53-1.185 1.53s.373-.514 1.132-1.525l3.387-4.508 13.197-17.501.083.159-23.888.809-.121.004-.019-.114-4.747-29.188.282.071-17.999 23.617-.144.189-.14-.191-16.65-22.752.307-.224c.113.294.066.408.09.591l.005.496-.018.986-.073 1.972-.201 3.967-.487 8.038-1.125 16.491-.021.315-.276-.155-22.845-12.844.281-.272a416.384 416.384 0 0 0 6.178 11.307c2.145 3.76 4.341 7.541 6.825 11.154l.127.185-.192.112-3.039 1.767-19.547 11.362-.071-.379 28.765 4.525.207.033-.04.191-5.269 25.401-.3-.199 25.131-17.437.123-.086.107.105 20.176 19.838-.279.093 4.519-29.153.027-.178.166.069c5.822 2.406 11.413 4.312 16.545 6.127 5.137 1.803 9.826 3.502 13.95 5.22l-.102.174-17.815-13.815-4.638-3.608a224.199 224.199 0 0 1-1.564-1.239z"/><path style="fill:#263238" d="M123.063 98.671a2.401 2.401 0 1 1-4.802 0 2.401 2.401 0 0 1 4.802 0zM130.39 98.671a2.401 2.401 0 1 1-4.802 0 2.401 2.401 0 0 1 4.802 0zM137.717 98.671a2.4 2.4 0 1 1-4.802 0 2.4 2.4 0 0 1 4.802 0zM453.482 144.142c-1.576-4.047-3.138-8.127-3.994-12.385-.856-4.258-.982-8.741.296-12.892.194-.629 1.91-4.875 2.568-4.847.47.019-.512 3.944-.252 4.337 2.478 3.746 3.358 8.371 3.253 12.861-.105 4.49-.805 8.563-1.871 12.926"/><path style="fill:#ffbe9d" d="M477.078 193.034c-6.73.243-22.241-18.229-22.63-24.952l-2.34-40.459c-.974-10.849 4.527-20.46 15.399-21.134l1.008-.004c10.148-.036 18.626 7.723 19.477 17.835.793 9.408 1.548 19.814 1.503 24.863-.092 10.452-10.54 12.115-10.54 12.115-.023.001.08 2.421.223 5.485.322 6.883 4.373 25.991-2.513 26.24l.413.011z"/><path style="fill:#eb996e" d="M478.956 161.299s-6.587.41-13.623-3.975c0 0 3.302 7.846 13.728 6.868l-.105-2.893z"/><path style="fill:#263238" d="M485.006 132.368c.031.788-.611 1.464-1.434 1.511-.821.047-1.513-.552-1.543-1.34-.031-.788.611-1.465 1.432-1.512.822-.047 1.514.553 1.545 1.341zM485.787 128.944c-.184.195-1.318-.638-2.924-.628-1.604-.013-2.78.817-2.955.621-.086-.087.101-.439.613-.814.504-.374 1.364-.739 2.365-.738 1 .002 1.843.367 2.328.743.496.377.664.729.573.816zM470.257 133.03c.031.788-.611 1.464-1.434 1.511-.821.047-1.513-.552-1.543-1.34-.03-.788.612-1.465 1.433-1.512.822-.047 1.514.553 1.544 1.341zM470.044 129.373c-.185.195-1.32-.637-2.925-.627-1.604-.013-2.78.818-2.955.621-.086-.087.1-.439.614-.814.504-.374 1.364-.739 2.365-.739 1.001.002 1.843.368 2.329.742.493.378.662.729.572.817zM475.85 141.694c-.008-.091.99-.267 2.607-.48.41-.044.798-.126.866-.407.096-.297-.078-.738-.278-1.215l-1.224-3.119c-1.7-4.441-2.933-8.092-2.753-8.16.18-.067 1.703 3.478 3.404 7.919.409 1.095.801 2.139 1.173 3.138.157.466.426.993.219 1.609-.109.307-.41.531-.672.602-.263.081-.494.087-.696.099-1.63.095-2.64.106-2.646.014zM469.879 123.37c-.217.411-1.777-.015-3.675-.049-1.897-.072-3.478.265-3.672-.157-.085-.201.234-.572.901-.906.661-.334 1.679-.598 2.817-.568 1.138.033 2.139.353 2.78.724.647.372.945.76.849.956zM485.394 125.19c-.327.371-1.642.016-3.215.028-1.572-.035-2.899.299-3.212-.077-.138-.183.065-.552.64-.908.567-.355 1.521-.654 2.602-.646 1.081.009 2.023.322 2.577.686.563.364.752.736.608.917z"/><path style="fill:#ffbe9d" d="M452.99 135.359c-.178-.077-7.189-2.099-6.936 5.046.254 7.145 7.375 5.416 7.38 5.211.005-.205-.444-10.257-.444-10.257z"/><path style="fill:#eb996e" d="M451.155 142.987c-.032-.022-.121.091-.328.195a1.248 1.248 0 0 1-.93.052c-.764-.25-1.443-1.426-1.523-2.713a4.117 4.117 0 0 1 .285-1.794c.2-.531.525-.908.902-.989a.635.635 0 0 1 .747.315c.103.196.062.341.101.352.021.017.149-.125.081-.418a.794.794 0 0 0-.297-.438.937.937 0 0 0-.695-.157c-.55.058-1.028.582-1.261 1.154a4.238 4.238 0 0 0-.361 2.007c.097 1.438.882 2.759 1.925 3.021.507.113.921-.053 1.132-.229.215-.185.247-.346.222-.358z"/><path style="fill:#263238" d="M482.848 112.693c1.128-.689-2.507-4.279-5.405-5.442-4.38-1.757-10.989-2.666-14.897-1.368-4.706 1.563-8.561 4.11-10.761 8.554-2.201 4.444-2.876 9.538-2.517 14.484.109 1.509.336 3.077 1.2 4.319 1.068 1.535 3.026 2.445 3.039 4.627.004.797.267 1.591.839 2.147 1.368 1.333 2.909-.045 3.586-1.387 1.446-2.867 1.473-6.215 1.469-9.426-.003-2.282-.014-4.613-.753-6.773-.402-1.175-1.013-2.275-1.35-3.47-.336-1.196-.361-2.568.348-3.588.115-.166.308-.377.554-.613a7.455 7.455 0 0 1 7.327-1.734c4.085 1.244 11.048 3.065 12.781 1.621 2.494-2.078 3.054-3.386 3.054-3.386l1.486 1.435zM471.48 142.754c-.096.018-.137.41.028 1.021.153.604.61 1.438 1.383 2.039.761.611 1.563.928 2.138 1.113.58.181.957.227.996.133.041-.098-.27-.319-.78-.619-.507-.302-1.22-.679-1.88-1.211-1.351-1.04-1.658-2.537-1.885-2.476z"/><path style="fill:#ffbe9d" d="m543.435 256.316-50.074 3.377-1.651-16.687 60.603 2.218z"/><path style="fill:#455a64" d="M579.01 201.785c.003.065.605 1.211.605 1.211-4 8.54-18.53 39.465-18.53 39.465l-19.1 10.342-46.715.246-.113-2.52 23.563-10.587 30.02-.605 14.676-32.626a2.946 2.946 0 0 1 2-1.657l13.594-3.269z"/><path style="fill:#263238" d="M541.985 252.804c.062.027.5-.722 1.158-1.954a183.003 183.003 0 0 0 2.477-4.852 183.06 183.06 0 0 0 2.347-4.913c.577-1.269.904-2.07.844-2.1-.06-.03-.497.716-1.155 1.948a183.603 183.603 0 0 0-2.48 4.859c-.943 1.91-1.772 3.65-2.349 4.919-.578 1.269-.904 2.066-.842 2.093z"/><path style="fill:#263238" d="m537.453 248.878-19.988.24 14.708-8.531 16.138-.361zM495.157 250.531c.001.017.169.027.489.029l1.398-.01 5.138-.09c4.338-.076 10.331-.123 16.952-.172 6.624-.049 12.621-.15 16.96-.315 2.169-.081 3.924-.165 5.136-.246l1.395-.102c.319-.029.485-.052.485-.069-.001-.017-.169-.027-.489-.03l-1.398.011-5.137.09c-4.338.077-10.331.123-16.955.172-6.621.049-12.618.15-16.957.315-2.169.081-3.924.165-5.136.246l-1.395.102c-.32.028-.487.052-.486.069zM544.779 251.291c.015.007.123-.191.314-.573l.812-1.683 2.904-6.229 9.413-20.627 7.002-15.565-.14.116 10.561-2.647 2.941-.771c.676-.184 1.034-.293 1.029-.314-.005-.021-.373.046-1.058.191l-2.968.66-10.602 2.478-.097.023-.042.093-7.071 15.534-9.282 20.686-2.762 6.293-.729 1.721c-.163.396-.24.607-.225.614z"/><path style="fill:#ffbe9d" d="M556.169 239.608s-.867-.792-2.43 1.402c-1.564 2.194-4.052 8.494-4.052 8.494l-2.979 1.519s2.532-3.254 2.474-4.544c-.058-1.29-2.086-1.199-3.109.694-1.023 1.893-4.088 5.632-4.088 5.632s1.181 3.685 1.451 3.512c.269-.172 5.326-.676 5.326-.676l1.354-.707s3.41-.153 3.553-1.083c.143-.93 5.591-5.053 5.554-5.883l-.24-5.346s2.299-6.383 1.717-7.003c-.582-.622-2.948-1.901-4.531 3.989z"/><path style="fill:#eb996e" d="M555.8 239.527c.002.026.098.017.246.065.148.038.315.222.327.513l.002-.029c-.182.688-.391 1.748-.613 3.045-.229 1.294-.457 2.835-.862 4.425-.271 1.146-.876 2.056-1.495 2.894l-1.584 2.25c-.89 1.289-1.413 2.107-1.359 2.146.055.04.677-.705 1.638-1.942l1.669-2.188c.31-.414.644-.855.935-1.361.295-.507.51-1.083.669-1.671.417-1.639.617-3.186.801-4.489l.424-3.063.003-.022-.001-.008c-.045-.386-.331-.612-.527-.615-.191-.017-.275.036-.273.05zM557.108 250.327c.131.032.657-1.667 1.175-3.795s.831-3.879.699-3.911c-.131-.032-.657 1.667-1.175 3.796-.517 2.127-.83 3.879-.699 3.91zM547.436 245.819c.004.035.141.043.376.058.222.021.599.04.828.287.24.244.165.715-.06 1.214l-.713 1.704-.729 1.672c-.253.492-.528.921-.744 1.295-.445.745-.623 1.266-.561 1.293.062.027.338-.418.85-1.104.251-.347.561-.761.851-1.269.247-.519.52-1.095.786-1.703l.679-1.722c.102-.275.188-.559.192-.853.011-.292-.107-.6-.309-.774-.43-.346-.849-.255-1.081-.231-.243.045-.369.101-.365.133z"/><path style="fill:#455a64" d="m476.946 438.493-4.742 19.703s18.435 11.437 17.913 15.164l-38.534-7.822 6.129-31.004 19.234 3.959z"/><path style="fill:#e0e0e0" d="M460.628 454.108c-.787.052-1.473.786-1.453 1.575.02.789.76 1.492 1.548 1.453.788-.039 1.638-.894 1.53-1.676-.108-.781-1.023-1.56-1.778-1.333"/><g style="opacity:.6"><path style="fill:#fff" d="m451.583 465.538.74-3.101 36.669 8.659s1.564 1.095 1.125 2.264l-38.534-7.822z"/></g><path style="fill:#263238" d="M472.868 458.127c-.044.187-1.003.081-2.051.498-1.06.39-1.702 1.108-1.86.998-.166-.072.343-1.14 1.621-1.622 1.274-.494 2.366-.039 2.29.126zM476.571 460.619c.006.191-.874.346-1.674 1.012-.82.643-1.156 1.47-1.342 1.424-.183-.006-.089-1.135.922-1.944 1.003-.818 2.126-.672 2.094-.492zM477.884 465.922c-.179.005-.25-.988.442-1.92.686-.938 1.655-1.164 1.703-.991.075.176-.608.613-1.165 1.387-.574.761-.789 1.543-.98 1.524zM473.451 453.517c-.114.155-.924-.28-2.002-.423-1.075-.166-1.975.023-2.041-.158-.081-.158.868-.69 2.136-.503 1.268.176 2.029.954 1.907 1.084z"/><path style="fill:#455a64" d="m463.793 443.672.023 20.266s20.607 6.782 20.976 10.527l-39.293 1.457-1.332-31.576 19.626-.674z"/><path style="fill:#e0e0e0" d="M451.604 462.686c-.753.236-1.247 1.111-1.042 1.872.205.762 1.09 1.272 1.847 1.049.757-.223 1.382-1.254 1.093-1.989-.289-.734-1.361-1.276-2.042-.878"/><g style="opacity:.6"><path style="fill:#fff" d="m445.5 475.922-.01-3.188 37.677-.205s1.777.696 1.625 1.936l-39.292 1.457z"/></g><path style="fill:#263238" d="M464.446 463.715c.001.192-.955.315-1.876.967-.938.628-1.394 1.477-1.574 1.408-.178-.031.065-1.188 1.195-1.958 1.122-.781 2.29-.595 2.255-.417zM468.631 465.266c.051.184-.768.541-1.39 1.377-.646.817-.778 1.701-.97 1.7-.179.037-.353-1.082.439-2.106.784-1.031 1.91-1.154 1.921-.971zM471.154 470.112c-.173.047-.475-.901-.022-1.97.446-1.073 1.336-1.521 1.423-1.364.114.154-.447.739-.806 1.623-.38.874-.405 1.685-.595 1.711zM463.928 459.097c-.074.178-.964-.054-2.046.06-1.084.092-1.914.487-2.021.326-.116-.135.681-.875 1.958-.992 1.275-.126 2.198.451 2.109.606z"/><path style="fill:#263238" d="m432.851 296.755.718 15.993 7.092 62.114s-1.317 30.345-2.192 47.48c-.76 14.881 2.728 40.581 2.728 40.581l25.001-1.122 5.082-86.459 3.143-53.919 8.563-24.861-50.135.193z"/><path style="fill:#263238" d="m500.124 296.59-2.197 87.138-22.371 66.218-.986 3.972-15.1-2.941 4.197-154.511z"/><path style="fill:#455a64" d="M474.385 322.067c.008 0 .016.122.025.361l.027 1.061.057 4.08c.058 3.544.034 8.672-.041 15.008-.187 12.672-.811 30.175-2.144 49.465-1.298 19.299-2.906 36.735-4.086 49.35l-1.437 14.936-.413 4.059-.119 1.055c-.029.237-.048.358-.056.358-.008-.001-.005-.123.009-.362l.073-1.059.325-4.067 1.289-14.95c1.096-12.623 2.652-30.059 3.949-49.352 1.332-19.284 2.009-36.775 2.28-49.44.118-6.333.192-11.459.19-15.002l.03-4.08.02-1.061c.007-.237.014-.36.022-.36zM451.792 297.496c.028.004.02.333-.064.923-.081.59-.262 1.437-.601 2.45-.662 2.017-2.113 4.715-4.585 6.89-2.473 2.176-5.333 3.272-7.419 3.672a13.82 13.82 0 0 1-2.506.284c-.595.007-.923-.026-.923-.055-.004-.089 1.318-.063 3.358-.552 2.027-.475 4.782-1.589 7.182-3.701 2.398-2.111 3.854-4.702 4.583-6.652.744-1.96.887-3.275.975-3.259zM474.993 300.251a1.288 1.288 0 1 1-2.573.115 1.288 1.288 0 0 1 2.573-.115zM497.518 311.406c-.032.04-.793-.497-1.837-1.574-1.044-1.072-2.331-2.727-3.365-4.778-1.029-2.054-1.59-4.074-1.828-5.552-.241-1.481-.218-2.411-.167-2.413.077-.006.171.91.491 2.35a23.777 23.777 0 0 0 1.921 5.405 23.776 23.776 0 0 0 3.192 4.765c.965 1.117 1.644 1.739 1.593 1.797z"/><path style="fill:#ff725e" d="m474.896 172.198-21.569-16.569-4.074 6.916s-17.531 14.096-20.8 18.001l7.239 60.116s-3.42 31.94-3.621 34.454c-.2 2.514-2.087 24.536-2.087 24.536-.189 4.162 3.454 9.037 4.153 9.006 0 0 3.315-4.346 7.079-4.202 3.764.144 29.545 5.877 29.545 5.877l30.632-8.264-6.017-60.797-2.924-40.737-3.402-15.481-6.382-5.818-3.356-10.154s-.857 12.883-1.034 12.422c-.176-.463-3.382-9.306-3.382-9.306z"/><path style="fill:#263238" d="M449.858 163.59c-.026.023.289.411.882 1.095a70.604 70.604 0 0 0 2.622 2.788c2.257 2.315 5.546 5.334 9.112 8.719 1.76 1.679 3.41 3.306 4.854 4.838l.172.182.166-.181c2.196-2.395 3.754-4.657 4.963-6.163l1.411-1.759c.334-.404.511-.625.491-.644-.018-.017-.232.17-.603.544-.37.375-.889.942-1.518 1.682-1.276 1.461-2.893 3.691-5.081 6.022l.337.001c-1.435-1.558-3.082-3.202-4.847-4.885-3.576-3.394-6.895-6.365-9.209-8.609-1.166-1.113-2.088-2.035-2.729-2.669-.634-.64-.997-.984-1.023-.961zM489.906 271.712c.009-.001.008-.081-.002-.237l-.056-.689-.265-2.644-1.077-9.713a3218.028 3218.028 0 0 0-3.836-32.013c-1.557-12.498-3.054-23.801-4.235-31.969a447.136 447.136 0 0 0-1.488-9.66l-.48-2.615-.137-.677c-.034-.152-.055-.229-.064-.228-.008.001-.004.082.013.237l.088.686.386 2.628 1.33 9.679c1.091 8.178 2.531 19.486 4.088 31.983l3.982 31.993 1.236 9.694.359 2.633.105.683c.026.152.044.23.053.229z"/><path d="M495.962 246.909c-2.303 1.282-4.975 1.81-7.235 3.167-1.613.968-2.953 2.32-4.323 3.61-9.483 8.932-21.613 15.58-34.615 16.393-4.464.279-9.273-.248-12.732-3.084-1.901-1.56-3.318-4.052-2.718-6.437.73-2.904 3.93-4.329 6.745-5.348l26.288-9.52c5.536-2.005 11.097-4.017 16.866-5.197a60.69 60.69 0 0 1 11.772-1.229" style="opacity:.3"/><path style="fill:#263238" d="M468.065 285.422c.073.118 6.35-3.643 14.018-8.398 7.671-4.757 13.828-8.708 13.755-8.826-.073-.118-6.349 3.642-14.02 8.399-7.668 4.756-13.826 8.707-13.753 8.825z"/><path style="fill:#263238" d="M489.379 305.368c.035-.006-.003-.452-.091-1.255l-.334-3.401c-.259-2.874-.46-6.854-.603-11.259a791.36 791.36 0 0 0-.447-11.284l-.193-3.418c-.057-.807-.104-1.252-.139-1.251-.035.001-.053.449-.056 1.257l.033 3.423c.051 2.89.152 6.88.3 11.289.143 4.408.401 8.403.751 11.278.17 1.438.351 2.596.494 3.393.148.797.251 1.234.285 1.228z"/><path d="M456.456 237.347c-2.631-8.524-2.858-18.446-3.022-27.312-1.314 6.158-2.67 15.539-3.691 21.991l2.799 6.018 3.914-.697zM478.279 181.503s-.803-.379-1.049-.703c-.93-1.223-1.478-2.696-2.389-3.933a71.193 71.193 0 0 0-6.452 7.458c-3.253-3.104-6.511-6.213-9.476-9.594a75.958 75.958 0 0 1-6.526-8.604l15.11 14.746 7.398-8.675 3.384 9.305z" style="opacity:.3"/><path style="fill:#263238" d="M479.013 173.544c-.095.067.613 1.46 1.512 3.212.9 1.769 2.09 2.945 2.193 2.839.088-.086-.872-1.322-1.758-3.061-.891-1.737-1.819-3.075-1.947-2.99zM457.268 185.045c.025-.016-.147-.353-.537-.913a16.603 16.603 0 0 0-1.886-2.185c-.865-.86-1.976-1.798-3.25-2.775-1.269-.963-2.715-2.079-4.545-2.654-1.83-.567-3.669-.487-5.263-.297-1.608.183-3.004.56-4.189.828a116.8 116.8 0 0 0-2.791.682c-.656.172-1.013.282-1.004.316.009.034.383-.013 1.051-.126.668-.113 1.63-.292 2.815-.523 1.185-.222 2.59-.563 4.171-.717 1.569-.163 3.339-.218 5.06.316 1.719.537 3.137 1.603 4.416 2.544 1.282.951 2.4 1.848 3.284 2.663 1.779 1.623 2.599 2.89 2.668 2.841z"/><path style="fill:#ffbe9d" d="m488.324 232.17-.128 12.174s-17.63 9.223-29.274 12.781c-11.644 3.558-25.536 3.716-25.536 3.716l4.066-19.952 50.872-8.719z"/><path style="fill:#ffbe9d" d="M523.257 233.092s.178-1.531-1.426-2.426c-1.604-.895-4.985-2.883-4.985-2.883l-9.978-.457-18.544 4.844-.128 12.174s9.565.096 11.779-.086c2.214-.182 8.285-2.429 8.285-2.429s10.407.85 10.874.253c.467-.597 1.095-1.283.419-1.665-.675-.381-8.734-2.077-8.734-2.077l5.32-.65s7.876 1.292 8.44 1.02c.564-.272 1.259-1.291.733-2.008l-.526-.717s.426-1.5-.914-2.016l-.75-.213.135-.664z"/><path style="fill:#eb996e" d="M509.083 233.579c-.014.055.904.297 2.412.292 1.493.049 3.583-.286 5.741.24 1.071.28 2.048.755 2.981 1.104.93.354 1.789.61 2.518.791 1.46.359 2.389.432 2.398.375.013-.07-.891-.259-2.309-.695a29.621 29.621 0 0 1-2.449-.873c-.905-.362-1.885-.857-3.021-1.156-1.141-.291-2.259-.308-3.249-.273-.993.04-1.876.12-2.617.155-1.481.09-2.392-.032-2.405.04zM509.822 230.747c-.014.06.816.251 2.156.181 1.334-.046 3.158-.322 5.032.427 1.89.692 3.6 1.368 4.852 1.801 1.25.444 2.037.689 2.062.629.025-.06-.718-.413-1.939-.937-1.227-.515-2.909-1.237-4.823-1.937-.961-.348-1.972-.531-2.869-.503-.897.013-1.681.125-2.339.189-1.31.152-2.121.082-2.132.15z"/><path style="fill:#ff725e" d="M428.453 180.546s-4.968 8.761-5.612 12.951c-.644 4.19-.754 48.093.114 48.886.868.793 2.368 1.766 2.368 1.766s-4.729 1.253-3.164 3.679 3.103 4.23 3.103 4.23 1.079 8.066 1.976 8.233c.898.168 6.07 2.795 6.07 2.795s14.188-8.489 15.318-12.701c1.13-4.212 3.871-12.657 3.871-12.657l-2.753-5.702 5.89-35.632s3.505-11.475-3.924-15.769c-7.428-4.294-20.755-4.857-23.257-.079z"/><path style="fill:#263238" d="M454.517 203.153c-.013-.002-.056.181-.127.535l-.295 1.566-1.044 5.918-3.533 20.815-.012.071.032.066 2.742 5.707-.012-.179c-1.247 4.019-2.556 8.403-3.967 12.856l-.243.568-.356.53c-.22.363-.521.679-.8 1.005-.27.334-.589.627-.892.931-.299.308-.616.598-.94.878-1.273 1.145-2.612 2.182-3.95 3.165-2.674 1.968-5.355 3.72-7.929 5.301l.221-.008a144.68 144.68 0 0 0-3.803-1.847c-.624-.286-1.232-.568-1.866-.806l-.243-.085c-.069-.022-.223-.054-.222-.065-.021-.002-.132-.146-.189-.271a5.821 5.821 0 0 1-.322-.871c-.673-2.432-1.009-4.79-1.331-6.901l-.008-.052-.032-.038a44.064 44.064 0 0 1-2.103-2.718 41.444 41.444 0 0 1-.881-1.277c-.152-.207-.235-.412-.344-.611-.052-.214-.107-.422-.072-.631.132-.85.922-1.363 1.534-1.721a9.408 9.408 0 0 1 1.815-.758l.176-.053-.152-.097a30.92 30.92 0 0 1-1.825-1.256c-.392-.294-.577-.453-.588-.44-.005.005.036.051.123.138.088.086.224.21.412.37.378.317.964.77 1.787 1.328l.024-.15a9.26 9.26 0 0 0-1.877.729 5.13 5.13 0 0 0-1.006.688c-.31.296-.615.686-.687 1.19-.045.254.012.504.075.758.113.226.22.476.363.674.27.422.561.855.869 1.298a42.566 42.566 0 0 0 2.09 2.766l-.04-.09c.303 2.131.612 4.476 1.283 6.972.092.312.191.624.342.94.095.154.136.328.41.478.15.056.161.05.249.077l.223.08c.602.23 1.213.517 1.829.803 1.231.581 2.492 1.207 3.779 1.86l.114.058.108-.065c2.598-1.58 5.288-3.325 7.984-5.3 1.348-.986 2.699-2.028 3.992-3.189.328-.284.651-.578.958-.893.311-.311.635-.609.917-.956.29-.338.598-.661.839-1.054.126-.19.26-.374.38-.569l.28-.653c1.427-4.503 2.714-8.837 3.95-12.866l.029-.095-.041-.085-2.763-5.696.02.137 3.354-20.845.916-5.939.225-1.578c.045-.359.063-.545.051-.548z"/><path style="fill:#263238" d="M425.08 243.988c-.008.032.255.138.751.27.496.12 1.232.292 2.177.229a3.624 3.624 0 0 0 1.487-.443 12.27 12.27 0 0 0 1.462-.932c.981-.723 1.974-1.581 3.08-2.409 2.197-1.677 4.264-3.097 5.748-4.144 1.487-1.043 2.394-1.71 2.355-1.769-.038-.057-1.013.505-2.552 1.473-1.536.973-3.642 2.352-5.856 4.041-1.113.834-2.113 1.716-3.052 2.438-.953.712-1.834 1.323-2.71 1.393-.871.103-1.603-.008-2.101-.068-.5-.072-.78-.114-.789-.079zM425.261 252.057c-.005.025.32.136.938.174.611.036 1.549-.067 2.544-.577a42.575 42.575 0 0 0 6.99-4.861c2.527-2.168 4.594-4.358 6.059-5.959a72.95 72.95 0 0 0 1.703-1.928c.392-.464.596-.732.571-.756-.052-.049-1.007.897-2.531 2.439-1.529 1.536-3.626 3.675-6.128 5.822-2.487 2.147-5.008 3.811-6.826 4.927a5.303 5.303 0 0 1-2.381.697c-.597.023-.933-.021-.939.022z"/><path d="M441.942 235.027c-.84 1.5-2.103 2.71-3.347 3.896l-5.943 5.667c-1.139 1.086-2.489 2.25-4.056 2.104-.8-.074-1.524-.49-2.204-.918-.622-.39-1.315-.978-1.176-1.699a6.087 6.087 0 0 0 5.244-.793c.665-.464 1.228-1.056 1.816-1.615 2.816-2.679 6.241-4.614 9.627-6.521" style="opacity:.3"/><path style="fill:#eb996e" d="M487.327 244.458c0 .035.437.065 1.228.089l3.349.055 4.968.018 2.934-.007c.578-.027 1.044-.211 1.563-.335l1.539-.441c2.13-.631 4.143-1.266 5.955-1.85l-.081.01c2.76.127 5.104.219 6.759.267l1.931.037c.448 0 .69-.012.692-.037.001-.026-.238-.063-.684-.11l-1.924-.167c-1.65-.127-3.991-.283-6.749-.449l-.04-.002-.042.013-5.958 1.807-1.53.441c-.496.124-1.017.313-1.457.326l-2.927.036-4.956.09-3.343.104c-.79.034-1.227.07-1.227.105z"/><path style="fill:#263238" d="M365.282 475.922H231.025c-11.55 0-20.914-9.363-20.914-20.914V79.294c0-11.55 9.363-20.914 20.914-20.914h134.257c11.55 0 20.914 9.363 20.914 20.914v375.714c0 11.551-9.364 20.914-20.914 20.914z"/><path style="fill:#455a64" d="M349.398 476.095H218.42c-12.456 0-22.553-10.097-22.553-22.553V81.106c0-12.456 10.097-22.553 22.553-22.553h130.978c12.456 0 22.553 10.097 22.553 22.553v372.435c0 12.456-10.098 22.554-22.553 22.554z"/><path style="fill:#fff" d="m345.403 65.214-23.922-.034c-3.208-.004-5.808 3.214-5.805 7.186l.002 5.141c.003 3.973-2.597 7.191-5.805 7.186l-46.629-.067c-3.208-.004-5.81-3.229-5.812-7.203l-.002-5.141c-.002-3.973-2.605-7.198-5.813-7.202l-8.413-.012-20.937-.03c-10.398-.014-18.825 9.962-18.82 22.282l.166 357.697c.006 12.314 8.433 22.305 18.826 22.32l123.136.177c10.397.015 18.825-9.962 18.82-22.281l-.166-357.698c-.006-12.315-8.433-22.306-18.826-22.321z"/><path style="fill:#263238" d="M345.403 65.214s.244.006.727.031c.483.03 1.21.027 2.147.233 1.868.317 4.679 1.197 7.649 3.494a22.254 22.254 0 0 1 4.219 4.6c1.316 1.895 2.409 4.208 3.162 6.834.369 1.314.662 2.708.82 4.171.174 1.459.192 2.99.192 4.555l.017 10.019.138 119.913.138 177.846.017 25.407.008 12.927.004 6.517c-.006 2.171.067 4.369-.197 6.573-.218 2.201-.798 4.364-1.603 6.433a21.783 21.783 0 0 1-3.302 5.791c-1.385 1.755-3.042 3.312-4.939 4.534a16.929 16.929 0 0 1-6.291 2.419c-2.256.374-4.508.22-6.746.248a1139570.457 1139570.457 0 0 0-20.347-.027l-55.549-.076-28.411-.04-14.35-.02c-2.423.009-4.882-.442-7.111-1.444-2.236-.985-4.249-2.447-5.942-4.206-3.421-3.522-5.461-8.194-6.185-12.971-.41-2.402-.288-4.832-.314-7.211a5108764.665 5108764.665 0 0 0-.015-35.585l-.022-55.564-.034-105.041-.02-95.049-.005-43.075.006-20.303c.06-6.644 2.607-13.24 7.357-17.565 2.358-2.133 5.202-3.765 8.281-4.354.768-.14 1.532-.299 2.31-.306.777-.062 1.543-.07 2.304-.059l4.545.009 17.586.035 4.245.009c.708.012 1.391-.021 2.112.028a5.139 5.139 0 0 1 2.043.618c1.257.691 2.182 1.843 2.764 3.098.584 1.263.813 2.666.778 4.016l-.001 3.996c-.027 1.319.076 2.613.565 3.806.454 1.186 1.205 2.27 2.211 3.006.501.364 1.053.67 1.651.822.596.165 1.202.185 1.838.177l28.025.062 12.356.029 5.746.007c1.854-.031 3.469-1.214 4.374-2.688.942-1.481 1.293-3.217 1.232-4.873l.013-4.86c.031-1.584.493-3.107 1.299-4.352.813-1.234 2.001-2.193 3.35-2.542.673-.179 1.362-.16 2.01-.158l1.925.006 3.61.011 6.247.021 8.478.038c1.907.011 2.885.03 2.885.03s-.978.016-2.888.022l-8.478.014-6.247.004-3.61.001h-1.925c-.657 0-1.32-.016-1.971.159-1.305.341-2.459 1.276-3.25 2.484-.784 1.219-1.234 2.712-1.26 4.264l-.001 4.856c.066 1.67-.287 3.461-1.252 4.981-.926 1.516-2.598 2.756-4.541 2.793l-5.75.004-12.356-.007-28.025-.019c-.618.01-1.288-.009-1.916-.185-.635-.162-1.22-.484-1.748-.867-1.061-.775-1.842-1.905-2.316-3.135-.509-1.227-.617-2.602-.59-3.915l-.004-3.996c.032-1.331-.192-2.665-.754-3.883-.56-1.205-1.447-2.301-2.631-2.949a4.806 4.806 0 0 0-1.914-.577c-.671-.046-1.39-.014-2.086-.025l-4.245-.004-17.586-.016-4.545-.004a24.038 24.038 0 0 0-2.281.06c-.762.007-1.508.164-2.259.301-3.01.578-5.793 2.178-8.106 4.274-4.658 4.248-7.167 10.747-7.22 17.296l.01 20.301.035 43.075.068 95.049.064 105.041.03 55.564.014 28.42.004 7.165c.026 2.396-.093 4.79.309 7.134.709 4.682 2.71 9.255 6.046 12.688 1.65 1.715 3.608 3.135 5.776 4.09 2.168.972 4.526 1.407 6.902 1.4a1512735.22 1512735.22 0 0 1 111.906.168l6.752.01c2.243-.026 4.503.122 6.662-.24a16.417 16.417 0 0 0 6.105-2.346c1.845-1.188 3.462-2.706 4.815-4.42a21.284 21.284 0 0 0 3.231-5.665c.789-2.026 1.36-4.146 1.573-6.306.26-2.148.19-4.333.196-6.515l-.002-6.517-.004-12.926-.007-25.407-.027-177.846.027-119.913.007-10.019c.004-1.569-.009-3.085-.179-4.537a25.333 25.333 0 0 0-.803-4.147c-.74-2.612-1.819-4.915-3.121-6.803a22.168 22.168 0 0 0-4.177-4.591c-2.943-2.298-5.734-3.191-7.593-3.524-.933-.214-1.658-.22-2.139-.258-.481-.032-.725-.056-.725-.056z"/><path style="fill:#aa6550" d="m245.305 430.13-2.625 38.91 16.793 2.062 8.042-39.736z"/><path style="fill:#ff725e" d="m242.886 463.9-.154 1.115s-19.924 5.06-20.605 8.62l37.566 4.838 1.099-12.566c-5.918 1.866-11.801 1.405-17.906-2.007z"/><path style="fill:#fff" d="M256.473 469.413c.701.292 1.098 1.174.835 1.887-.263.713-1.157 1.124-1.863.844-.706-.28-1.216-1.324-.874-2.003.341-.679 1.417-1.105 2.036-.664M259.693 478.472l.264-3.023-36.102-3.53s-1.766.512-1.729 1.715l37.567 4.838z"/><path style="fill:#263238" d="M242.587 465.103c-.018.184.889.385 1.716 1.092.845.684 1.208 1.539 1.386 1.488.174-.014.042-1.146-.974-1.983-1.009-.847-2.146-.771-2.128-.597zM238.437 466.225c-.065.172.689.587 1.213 1.443.548.84.597 1.7.781 1.715.169.051.434-1.007-.237-2.059-.661-1.058-1.731-1.274-1.757-1.099zM235.592 470.652c.162.061.535-.823.193-1.888-.334-1.068-1.148-1.576-1.245-1.433-.123.138.365.748.632 1.627.287.873.24 1.653.42 1.694zM313.136 116.93c.417-2.686 2.838-4.751 5.478-5.399 2.64-.648 5.437-.106 7.997.807 2.873 1.024 5.622 2.549 7.694 4.787s3.414 5.247 3.251 8.293c-.152 2.855-1.576 5.719-.781 8.466.604 2.086 2.369 3.608 4.139 4.866 1.77 1.258 3.687 2.438 4.878 4.253 1.191 1.816 1.387 4.518-.222 5.976-1.432 1.298-4.002 1.446-4.604 3.282-.373 1.139.261 2.328.611 3.475.74 2.425.167 5.13-1.171 7.283-1.337 2.154-3.374 3.801-5.581 5.048-3.87 2.186-8.695 3.207-12.783 1.462-2.023-.864-3.746-2.357-5.038-4.138-2.15-2.963-3.111-6.656-3.335-10.31-.224-3.654.243-7.312.708-10.943"/><path style="fill:#263238" d="M311.716 160.408c3.368.929 7.158.175 9.914-1.973 2.756-2.148 4.413-5.639 4.334-9.132-.074-3.262-1.549-6.586-.535-9.688.696-2.13 2.482-3.789 3.08-5.948.893-3.223-1.055-6.48-2.916-9.259-1.194-1.783-2.413-3.594-4.077-4.948-1.664-1.354-3.87-2.209-5.969-1.764M281.636 117.981c.182 2.463-1.445 4.662-3.083 6.509-1.639 1.847-3.462 3.773-3.816 6.216-.628 4.331 3.612 8.352 2.738 12.639-.469 2.298-2.35 4.144-2.685 6.465-.324 2.245.879 4.443 2.37 6.152 1.491 1.709 3.309 3.134 4.628 4.98 0 0 2.746 4.506 11.202 1.621"/><path style="fill:#263238" d="M319.483 121.747c.064-2.233-2.002-3.959-4.081-4.777-2.079-.818-4.39-1.126-6.243-2.374-1.641-1.105-2.744-2.827-4.133-4.235-3.408-3.454-8.728-4.887-13.41-3.61-4.681 1.277-8.537 5.213-9.719 9.919-.798 3.18-.253 6.941 2.254 9.054 2.91 2.453 7.223 1.908 10.952 1.145 3.728-.763 7.948-1.516 11.061.674 1.877 1.32 2.953 3.468 4.101 5.456 1.147 1.988 2.588 4.017 4.758 4.764 2.17.747 5.117-.543 5.201-2.837"/><path style="fill:#aa6550" d="M310.676 122.206a3.737 3.737 0 0 1 3.335 3.798l-2.23 50.469c-.093 5.96-8.806 9.31-15.188 9.161-6.445-.15-6.652-3.311-6.733-8.981-.135-9.474-.123-13.03-.127-12.976 0 0-8.14-1.37-9.804-11.999-.827-5.286-.543-13.949-.081-21.029.416-6.373 4.656-14.184 11.006-13.498l19.822 5.055z"/><path style="fill:#263238" d="M281.73 137.642c-.027.719.56 1.336 1.311 1.378.749.042 1.38-.506 1.407-1.225.027-.719-.56-1.336-1.309-1.378-.751-.043-1.382.505-1.409 1.225zM281.38 134.01c.169.178 1.203-.584 2.669-.576 1.465-.014 2.539.743 2.699.564.078-.079-.093-.4-.561-.743-.46-.341-1.246-.673-2.16-.671-.913.003-1.682.338-2.125.681-.451.345-.605.666-.522.745zM295.349 137.901c-.027.72.56 1.336 1.311 1.378.749.042 1.38-.506 1.407-1.225.027-.719-.56-1.337-1.309-1.378-.751-.043-1.382.506-1.409 1.225zM296.131 134.738c.169.178 1.204-.584 2.669-.577 1.465-.014 2.539.743 2.699.564.078-.079-.091-.4-.561-.743-.46-.341-1.246-.673-2.16-.671-.913.003-1.682.338-2.125.681-.45.345-.604.666-.522.746zM290.786 146.327c.007-.083-.904-.243-2.381-.435-.374-.04-.729-.115-.791-.37-.088-.271.07-.674.252-1.109l1.114-2.848c1.547-4.056 2.667-7.391 2.503-7.452-.164-.061-1.551 3.177-3.097 7.233-.372 1-.729 1.954-1.067 2.866-.143.425-.387.907-.197 1.469.1.28.375.484.615.549.24.074.451.078.636.09 1.485.081 2.407.09 2.413.007z"/><path style="fill:#724940" d="M289.734 163.676s7.147.477 14.238-3.764c0 0-3.606 7.298-14.238 6.28v-2.516z"/><path style="fill:#263238" d="M295.488 131.171c.144.399 1.608.213 3.328.424 1.724.177 3.11.683 3.339.326.102-.171-.139-.547-.699-.934-.555-.387-1.442-.755-2.474-.872-1.033-.115-1.978.047-2.606.3-.631.254-.949.566-.888.756zM281.598 130.76c.292.334 1.438-.009 2.815-.023 1.377-.056 2.543.229 2.813-.118.118-.169-.065-.503-.574-.819-.502-.315-1.341-.574-2.288-.551-.946.024-1.767.324-2.247.664-.487.342-.647.684-.519.847z"/><path style="fill:#263238" d="M318.095 157.162c-2.922.589-6.104-.309-8.288-2.339-2.183-2.029-3.311-5.138-2.936-8.095.33-2.609 1.737-5.264.833-7.734-1.196-3.265-5.774-4.27-6.988-7.529-.706-1.894-.072-4.109-.872-5.965-.753-1.745-2.589-2.75-4.376-3.397-1.787-.646-3.704-1.092-5.204-2.258-1.501-1.167-2.436-3.368-1.469-5.004 7.927.95 15.739 2.848 23.217 5.641 1.734.647 3.556 1.426 4.581 2.967 1.085 1.631 1.033 3.738.941 5.694l-1.335 28.621"/><path style="fill:#455a64" d="M323.71 122.64s.124.122.177.435c.062.306-.024.813-.41 1.277a2.667 2.667 0 0 1-1.902.962c-.874.021-1.778-.362-2.692-.806-.914-.46-1.921-.868-3.1-.915-1.169-.073-2.429.106-3.751.341-1.323.231-2.729.535-4.242.547-1.492.02-3.173-.428-4.351-1.588-1.192-1.131-1.87-2.568-2.505-3.886-.63-1.328-1.219-2.61-2.028-3.645-1.572-2.144-4.248-2.732-6.133-2.238-1.943.489-3.113 1.814-3.698 2.736-.597.957-.725 1.592-.779 1.574-.017-.004.004-.162.081-.457.082-.292.232-.719.514-1.227.55-.985 1.715-2.425 3.786-3.004a6.204 6.204 0 0 1 3.413.068c1.198.341 2.361 1.13 3.216 2.233.869 1.093 1.481 2.409 2.116 3.727.636 1.312 1.305 2.688 2.395 3.716 1.073 1.051 2.56 1.456 3.976 1.451 1.432-.004 2.819-.287 4.154-.508 1.334-.223 2.637-.394 3.871-.296 1.24.067 2.35.542 3.239 1.021.899.467 1.744.839 2.513.848.76-.012 1.386-.4 1.746-.794.373-.402.483-.84.461-1.125-.013-.292-.098-.436-.067-.447z"/><path style="fill:#455a64" d="M324.905 123.651c-.138.117-1.762-2.592-5.031-4.434-3.241-1.896-6.398-1.932-6.367-2.11-.001-.062.777-.146 2.023.024 1.242.165 2.944.65 4.618 1.607 1.671.963 2.947 2.189 3.716 3.178.775.991 1.095 1.705 1.041 1.735zM312.981 116.559c.016.01-.035.116-.149.313-.133.181-.334.459-.684.722-.675.535-1.954 1.023-3.516.782-1.573-.238-3.183-1.316-4.598-2.742-1.439-1.4-2.772-3.205-4.726-4.314-1.951-1.098-4.232-1.263-6.099-.776-1.893.474-3.335 1.615-4.257 2.758a8.838 8.838 0 0 0-1.621 3.092c-.231.802-.275 1.271-.323 1.266-.019-.002-.023-.119-.014-.344.006-.224.044-.556.133-.974a8.309 8.309 0 0 1 1.524-3.277c.921-1.223 2.424-2.472 4.431-3.004 1.976-.543 4.399-.388 6.49.787 2.092 1.197 3.422 3.051 4.814 4.434 1.366 1.414 2.867 2.451 4.312 2.717 1.443.271 2.658-.124 3.328-.576.687-.461.911-.897.955-.864zM312.492 161.722c-.004.021.158.066.473.13.314.062.785.126 1.396.141a10.873 10.873 0 0 0 5.025-1.133c1.98-.939 4.08-2.767 5.355-5.415 1.296-2.604 1.779-5.999.907-9.258-.381-1.615-.862-3.15-.934-4.655-.113-1.512.37-2.887 1.051-4.128.667-1.237 1.362-2.474 1.645-3.765a8.837 8.837 0 0 0 .103-3.603c-.386-2.19-1.387-3.751-2.195-4.656a6.848 6.848 0 0 0-1.02-.967c-.258-.192-.399-.283-.412-.265-.04.047.504.451 1.243 1.389a9.737 9.737 0 0 1 1.943 4.569 8.538 8.538 0 0 1-.171 3.409c-.285 1.203-.951 2.354-1.65 3.617-.34.635-.673 1.315-.894 2.066a7.38 7.38 0 0 0-.261 2.363c.072 1.615.566 3.183.938 4.77a12.964 12.964 0 0 1-.817 8.861c-1.191 2.542-3.151 4.312-5.032 5.269a11.3 11.3 0 0 1-4.826 1.285c-1.195.039-1.858-.081-1.867-.024z"/><path style="fill:#455a64" d="M331.313 114.668c.04-.055-.578-.581-1.814-.938-1.212-.361-3.099-.454-4.918.377-1.817.837-2.977 2.329-3.494 3.483-.535 1.17-.539 1.981-.472 1.987.102.023.265-.735.868-1.781.587-1.037 1.708-2.353 3.361-3.115 1.655-.756 3.384-.748 4.552-.516 1.186.224 1.868.596 1.917.503z"/><path style="fill:#455a64" d="M323.456 121.375c.032-.007-.029-.244-.044-.691-.022-.443.059-1.124.468-1.866.403-.737 1.131-1.531 2.202-2.068a4.604 4.604 0 0 1 3.887-.099c1.39.556 2.637 1.77 3.474 3.326.844 1.564 1.166 3.495 1.081 5.507-.072 2.02-.523 4.115-.996 6.297-.461 2.18-.939 4.495-.815 6.923.134 2.437.954 4.681 1.799 6.746.851 2.072 1.758 4.021 2.31 5.969.572 1.937.752 3.871.482 5.643-.25 1.773-.821 3.369-1.475 4.756-1.339 2.771-2.881 4.773-3.896 6.17l-1.198 1.598c-.272.367-.407.566-.39.58.017.014.185-.159.489-.5.304-.341.744-.853 1.293-1.527 1.078-1.357 2.685-3.325 4.104-6.126.693-1.402 1.308-3.036 1.591-4.876.305-1.836.134-3.88-.44-5.876-.554-2.01-1.461-3.986-2.297-6.044-.833-2.053-1.616-4.23-1.742-6.547-.193-4.663 1.697-8.976 1.762-13.166.073-2.077-.284-4.122-1.202-5.774-.907-1.638-2.254-2.916-3.769-3.492-1.503-.623-3.104-.411-4.212.198-1.128.604-1.867 1.472-2.26 2.27-.398.803-.441 1.53-.377 1.986.059.462.171.683.171.683z"/><path style="fill:#724940" d="M291.341 149.892c.247.625.499 1.26.913 1.789.414.53 1.019.949 1.69.981.715.034 1.405-.389 1.804-.984s.535-1.336.503-2.051c-.029-.647-.325-1.419-.968-1.495-.268-.032-.531.071-.781.173l-3.379 1.371"/><path style="fill:#263238" d="M292.691 152.672c.017-.106.759.195 1.802-.223.505-.203 1.058-.606 1.363-1.238A2.714 2.714 0 0 0 295.9 149a2.415 2.415 0 0 0-.295-.505c-.134-.141-.109-.134-.255-.113-.138.037-.36.142-.541.212l-.555.226c-.723.292-1.378.548-1.932.755-1.107.413-1.807.631-1.84.554-.033-.077.609-.433 1.672-.947a80.15 80.15 0 0 1 1.881-.874l.547-.245c.197-.081.348-.17.617-.254a.794.794 0 0 1 .501.014.93.93 0 0 1 .373.294c.151.201.284.408.38.641a3.166 3.166 0 0 1-.103 2.704 2.893 2.893 0 0 1-1.715 1.387 2.733 2.733 0 0 1-1.464.057c-.336-.086-.493-.2-.48-.234zM330.31 282.362c.026.117.047.258.071.381-.047-.416-.094-.771-.071-.381z"/><path style="fill:#aa6550" d="m340.263 291.469 1.501 13.253 12.126 11.077s1.026-1.663.472-3.048c-.554-1.384 2.769 1.8 2.769 1.8v7.614s2.077.831 2.769-.969c.692-1.8 1.107-8.306 1.107-8.306l-.969-.692s1.246-1.108.969-3.046c0 0 1.108-2.353.692-5.538-.415-3.184-1.246-4.845-1.246-4.845l-9.932-11.085-10.258 3.785z"/><path style="fill:#724940" d="M346.352 304.225c-.107.08 1.368 2.189 3.579 4.454 2.204 2.273 4.271 3.805 4.354 3.7.095-.114-1.807-1.807-3.988-4.056-2.188-2.241-3.828-4.189-3.945-4.098zM354.868 306.647c-.099.101 1.194 1.59 2.886 3.326 1.693 1.736 3.149 3.066 3.252 2.97.103-.096-1.189-1.585-2.886-3.326-1.698-1.741-3.154-3.07-3.252-2.97zM356.506 303.611c-.096.113 1.062 1.211 2.293 2.727 1.24 1.509 2.085 2.863 2.215 2.791.119-.059-.544-1.56-1.82-3.114-1.267-1.559-2.606-2.509-2.688-2.404zM357.904 300.477c-.096.11.786 1.02 1.799 2.195 1.018 1.172 1.791 2.175 1.914 2.096.116-.072-.483-1.226-1.528-2.43-1.041-1.207-2.097-1.965-2.185-1.861z"/><path style="fill:#455a64" d="M268.642 141.708c-.065.141-2.049-.63-4.433-1.721-2.385-1.092-4.265-2.09-4.201-2.23.064-.14 2.048.631 4.433 1.723 2.385 1.09 4.265 2.088 4.201 2.228z"/><path style="fill:#aa6550" d="M254.632 162.07c-.998-.04-3.425 1.407-5.373 4.089-.033.041-.068.076-.1.118-1.387 1.802-2.689-3.343-2.924-5.258-.152-1.243-1.497-2.006-2.713-1.557l-6.436 3.01-1.879.064c-.948.35-1.474 1.325-1.226 2.27l3.076 10.162.067 2.774 12.887 1.745.199-6.947c.192-.803.448-1.75.791-2.831a8.823 8.823 0 0 1 1.418-2.713c.661-.855 1.56-1.934 2.316-2.542.069-.044.146-.107.211-.142a1.21 1.21 0 0 0 .368-.318c.652-.704.293-1.884-.682-1.924z"/><path style="fill:#ff725e" d="M254.379 130.758s-7.521-1.441-18.326-11.257c-10.805-9.816-16.129-23.108-17.414-23.006-1.286.102-6.981-2.349-17.013 21.213-10.032 23.561-5.667 28.843-3.541 28.739 2.126-.104 16.459-4.54 25.511-3.77s20.784 5.143 20.784 5.143l9.999-17.062z"/><path style="fill:#263238" d="m270.617 142.985-2.413 4.921-1.081 2.204a6.33 6.33 0 0 1-8.168 3.036l-16.179-5.128 8.726-21.565 16.248 8.076a6.331 6.331 0 0 1 2.867 8.456z"/><path style="fill:#263238" d="m261.6 151.01-4.822 10.151-2.573-.637-16.288 14.035-4.918-8.989s9.732-4.524 11.455-8.089c1.722-3.565-.406-4.302-.406-4.302l4.488-5.401 13.064 3.232zM202.501 118.107c-5.333 12.76-7.383 24.055-4.579 25.226 2.804 1.172 9.4-8.223 14.733-20.983s7.383-24.054 4.579-25.226c-2.805-1.172-9.4 8.223-14.733 20.983z"/><path style="fill:#455a64" d="m272.191 149.952-4.381-1.241 2.542-5.185 3.314 1.932z"/><path d="m246.998 149.628 11.88 7.112 1.375-2.894z" style="opacity:.3"/><path style="fill:#455a64" d="M267.393 144.789c-.06.142-2.251-.639-4.893-1.744-2.645-1.105-4.738-2.117-4.679-2.259.059-.142 2.25.639 4.894 1.744 2.643 1.106 4.738 2.117 4.678 2.259zM265.799 148.029c-.021.075-.54-.03-1.37-.261a46.945 46.945 0 0 1-1.451-.433c-.541-.179-1.104-.444-1.708-.697-2.407-1.035-4.251-2.064-4.196-2.193.066-.153 2.029.654 4.414 1.68.598.251 1.154.53 1.676.731.524.195.995.377 1.388.538.788.322 1.268.56 1.247.635z"/><path style="fill:#fafafa" d="M214.022 114.976s-6.611-3.844-9.916 5.034c-3.305 8.878 3.571 10.127 3.571 10.127 2.674-4.417 4.805-9.452 6.345-15.161z"/><path style="fill:#263238" d="M220.635 104.32c.038.005-.037.604-.207 1.684-.175 1.078-.421 2.644-.784 4.567l-.81 3.097-.456 1.725-.24.902c-.089.303-.207.6-.311.907l-1.36 3.829-.359 1.004c-.117.339-.286.66-.429.994l-.909 2.018-.912 2.018c-.157.328-.285.668-.461.98l-.516.934-1.971 3.554c-.161.281-.306.566-.474.833l-.518.778-.993 1.486-1.788 2.659c-1.199 1.54-2.207 2.757-2.9 3.602-.697.841-1.096 1.295-1.127 1.271-.03-.024.311-.522.955-1.404l2.759-3.71 1.718-2.678.961-1.488.503-.777c.163-.267.304-.553.461-.833l1.929-3.546.508-.929c.174-.311.3-.648.455-.975l.903-2.005.905-2.003c.142-.332.312-.65.429-.986l.361-.995 1.381-3.792c.107-.303.228-.598.32-.897l.25-.893.48-1.707.871-3.063.954-4.514c.236-1.065.384-1.653.422-1.647z"/><path style="fill:#aa6550" d="M241.273 157.52c-.69.298-1.031 1.111-.772 1.842.495 1.401 1.295 3.6 1.894 4.932.193.429.401.866.735 1.187.334.321.825.507 1.252.345.45-.171.714-.686.748-1.185.035-.499-.115-.99-.268-1.465-.422-1.31-1.15-3.27-1.773-4.864-.291-.745-1.104-1.099-1.816-.792z"/><path style="fill:#aa6550" d="M239.317 160.104c-.69.298-1.031 1.111-.772 1.842.495 1.401 1.295 3.6 1.894 4.932.193.429.401.866.735 1.187.334.321.825.507 1.252.345.45-.171.714-.686.748-1.185.035-.499-.115-.99-.268-1.465-.422-1.31-1.15-3.27-1.773-4.864-.291-.745-1.104-1.099-1.816-.792z"/><path style="fill:#aa6550" d="M237.431 161.743a1.255 1.255 0 0 0-.699 1.595c.448 1.213 1.171 3.117 1.713 4.27.175.372.363.75.665 1.028.302.278.747.439 1.133.298.407-.148.646-.594.677-1.026.032-.432-.104-.857-.242-1.268-.382-1.134-1.04-2.831-1.604-4.212-.264-.644-1-.951-1.643-.685z"/><path style="fill:#aa6550" d="M234.948 162.295a1.261 1.261 0 0 0-.702 1.603c.45 1.219 1.177 3.132 1.721 4.29.176.374.364.753.668 1.033.304.279.75.441 1.138.3.409-.149.649-.597.68-1.031.032-.434-.105-.861-.244-1.274-.384-1.14-1.045-2.845-1.612-4.232a1.258 1.258 0 0 0-1.649-.689z"/><path style="fill:#724940" d="M242.999 165.537c-.133.056-.719-1.043-1.308-2.454-.59-1.411-.96-2.6-.828-2.655.133-.055.718 1.043 1.308 2.454.59 1.411.96 2.6.828 2.655zM240.863 167.682c-.134.052-.762-1.216-1.402-2.831-.64-1.616-1.051-2.97-.919-3.026.133-.056.76 1.212 1.402 2.831.641 1.62 1.053 2.975.919 3.026zM238.636 167.967c-.124.066-.817-.998-1.415-2.436-.601-1.438-.87-2.678-.735-2.72.14-.044.624 1.106 1.216 2.519.587 1.415 1.064 2.569.934 2.637z"/><path style="fill:#263238" d="m332.439 364.291-6.794-54.496c4.424-10.328 6.027-20.642 4.736-27.052.076.67.111 1.501-.071-.381-1.1-11.348-10.9-19.691-10.9-19.691l-3.278-13.768-41.959 5.9 1.588 23.047-27.156 95.618-4.93 80.83 21.926 2.572s8.596-40.42 10.913-57.307c2.129-15.516 2.178-27.637 2.178-27.637l20.603-30.822c2.439 12.725 5.195 28.427 6.615 36.622a21.498 21.498 0 0 0 4.569 9.973l53.909 42.43.007-25.556c-5.137-12.24-31.956-40.282-31.956-40.282z"/><path style="fill:#455a64" d="M279.56 271.905c-.063.021-.429-.84-.876-2.283a40.566 40.566 0 0 1-1.3-5.756 40.58 40.58 0 0 1-.461-5.884c0-1.511.095-2.442.162-2.44.077.001.113.932.206 2.428.093 1.496.268 3.559.608 5.818a67.637 67.637 0 0 0 1.14 5.736c.353 1.458.594 2.357.521 2.381zM281.501 256.228c-.012-.025.162-.158.541-.242.374-.08.971-.083 1.609.231.624.29 1.323.97 1.426 1.962.096.958-.374 2.056-1.34 2.644-.996.611-2.222.318-2.939-.269-.763-.584-1.073-1.514-.992-2.208.056-.703.3-1.209.47-1.54.177-.331.307-.494.337-.478.034.017-.035.212-.151.558-.11.344-.284.851-.288 1.473-.021.62.264 1.333.916 1.815.628.475 1.609.681 2.38.203.773-.464 1.188-1.382 1.129-2.154-.056-.788-.591-1.382-1.121-1.679-1.116-.633-1.974-.216-1.977-.316zM309.08 267.344c.011.034-.251.141-.737.305-.483.175-1.211.346-2.12.479-.91.142-2.013.185-3.231.114a18.035 18.035 0 0 1-3.893-.742 18.059 18.059 0 0 1-3.609-1.639c-1.036-.645-1.913-1.315-2.575-1.956-.667-.634-1.163-1.192-1.456-1.614-.303-.415-.455-.653-.426-.674.077-.061.761.842 2.128 2.014.678.592 1.553 1.213 2.574 1.817a19.55 19.55 0 0 0 3.523 1.556c1.308.405 2.595.639 3.774.76 1.182.094 2.255.092 3.15-.001 1.791-.17 2.871-.513 2.898-.419zM322.574 308.47c.013.012-.144.232-.457.641l-1.384 1.769c-1.163 1.567-2.846 3.834-4.867 6.679-4.05 5.684-9.52 13.628-15.504 22.441l-15.277 22.607a48820.44 48820.44 0 0 1-4.639 6.845l-1.28 1.849c-.297.42-.46.635-.475.626-.015-.01.119-.245.388-.683l1.198-1.903 4.501-6.937a1703.78 1703.78 0 0 1 15.153-22.696c5.986-8.815 11.506-16.729 15.636-22.364a213.675 213.675 0 0 1 5.006-6.589l1.463-1.712c.34-.388.524-.585.538-.573z"/><path style="fill:#263238" d="M315.176 186.359c.084 0 .08-1.052.363-2.707.282-1.648.921-3.906 2.198-6.117 1.235-2.236 2.933-3.9 4.461-4.541 1.533-.661 2.617-.311 2.619-.418.007-.02-.239-.144-.723-.197-.48-.06-1.207-.023-2.032.28-1.664.59-3.506 2.33-4.768 4.622-1.316 2.279-1.918 4.624-2.112 6.319-.196 1.705-.062 2.763-.006 2.759z"/><path style="fill:#ff725e" d="m311.716 170.166-21.982 3.407-3.916 3.391s-13.835 26.94-14.089 32.377c-.281 6.012 2.944 16.328 2.944 16.328l-3.165 23.801c-.468 2.733 1.308 5.357 2.502 5.357l37.973-5.092c4.952-.973 6.983-3.56 6.678-6.425l-.565-5.304 16.218-54.317c.96 3.211-.54-8.656-7.781-11.317-3.067-1.129-10.157-3.182-14.817-2.206z"/><path style="fill:#ff725e" d="M287.844 175.364s-6.766 5.214-13.171 11.144c-6.405 5.931-23.486 17.792-23.486 17.792l-1.176-24.813-12.887-1.745s-6.299 30.941-2.302 39.481c3.997 8.54 8.774 8.902 22.059 4.631 13.285-4.27 17.08-6.168 17.08-6.168l13.883-40.322z"/><path style="fill:#263238" d="M284.447 179.047c-.015-.01-.119.123-.305.384l-.789 1.157a146.423 146.423 0 0 0-2.78 4.333c-2.261 3.697-5.357 8.929-7.376 15.301-2.017 6.377-2.095 12.607-1.137 16.871.459 2.139 1.07 3.81 1.592 4.912.235.563.49.967.634 1.252.155.281.244.424.259.415.041-.021-.256-.626-.711-1.745-.461-1.117-1.013-2.786-1.42-4.905-.855-4.224-.721-10.349 1.27-16.648 1.996-6.298 5.019-11.529 7.198-15.266l2.639-4.413.708-1.208c.158-.279.233-.43.218-.44z"/><path style="fill:#ff725e" d="M322.401 172.374s-6.844 8.964-7.218 17.187c-.374 8.223 12.28 57.528 12.28 57.528l11.096 45.008 13.812-5.095s-3.214-32.044-3.825-36.023c-1.274-8.29-6.739-24.449-7.486-33.793-.748-9.344-4.21-27.338-5.922-31.548-1.711-4.21-1.776-13.499-12.737-13.264z"/><path style="fill:#263238" d="M315.75 194.104c-.017.002-.01.169.021.483l.16 1.373c.163 1.189.432 2.904.811 5.015.755 4.223 1.961 10.023 3.4 16.404 1.449 6.381 2.852 12.136 3.926 16.286.537 2.075.99 3.75 1.317 4.904l.394 1.324c.095.301.154.457.171.452.017-.005-.008-.169-.071-.479l-.301-1.347-1.159-4.941-3.779-16.313c-1.438-6.377-2.699-12.16-3.544-16.359l-.969-4.979-.255-1.356c-.063-.308-.105-.47-.122-.467z"/><path d="M314.762 248.986c-2.179-2.186-2.636-5.504-2.977-8.571l-3.26-29.273c-.678-6.084-1.318-12.464.977-18.14.345-.852.851-1.766 1.736-2.014.843-.237 1.755.247 2.284.945.529.698 2.011 1.704 2.227 2.552 2.216 8.699 3.178 17.266 5.393 25.965.586 2.299 1.349 2.211.842 4.528-.736 3.365-3.889 13.026-3.889 13.026s.45 3.507.584 5.558a5.315 5.315 0 0 1-3.917 5.424" style="opacity:.3"/><path style="fill:#fafafa" d="M316.801 198.955c-.017.03.248.226.751.544.505.315 1.246.762 2.231 1.195.978.423 2.248.847 3.715.75 1.476-.079 2.957-.803 4.312-1.697 1.364-.9 2.58-1.836 3.829-2.409 1.237-.593 2.481-.78 3.489-.57 1.014.179 1.734.661 2.131 1.07.398.417.531.726.573.705.022-.006-.048-.348-.425-.836-.375-.478-1.125-1.053-2.207-1.292-1.072-.276-2.453-.106-3.757.495-1.323.579-2.577 1.529-3.913 2.409-1.332.879-2.716 1.56-4.069 1.656-1.351.116-2.573-.244-3.543-.616-1.941-.788-3.072-1.491-3.117-1.404zM273.97 197.908c-.015.009.053.135.198.369.137.239.387.561.746.943.718.757 2.007 1.67 3.829 2.165 1.805.507 4.105.625 6.527.09 2.426-.504 4.938-1.528 7.588-2.444 5.288-1.967 10.538-1.775 14.092-.947 3.592.807 5.597 1.992 5.643 1.881.008-.016-.112-.094-.35-.228-.238-.133-.589-.334-1.062-.546a21.9 21.9 0 0 0-4.149-1.457 24.158 24.158 0 0 0-6.491-.697c-2.466.042-5.176.563-7.848 1.513-2.675.926-5.157 1.951-7.523 2.467-2.352.545-4.574.467-6.335.021-1.774-.435-3.042-1.265-3.783-1.958-.743-.702-1.036-1.204-1.082-1.172zM265.895 193.546c-.054-.005-.199.779-.105 2.058.09 1.274.493 3.036 1.406 4.777.92 1.738 2.146 3.067 3.147 3.861 1.002.801 1.731 1.124 1.757 1.076.046-.073-.608-.503-1.52-1.349a14.674 14.674 0 0 1-2.932-3.826 14.642 14.642 0 0 1-1.499-4.581c-.183-1.23-.168-2.012-.254-2.016z"/><path d="M280.014 185.638c-10.384 10.423-19.308 22.012-23.133 36.218 5.93-1.943 11.537-3.827 15.243-5.369 0 0-1.114-5.854-.44-9.303.824-4.214.82-7.749 8.33-21.546" style="opacity:.3"/><path style="fill:#263238" d="M251.379 204.357c.109.115-1.174 1.313-2.074 3.222-.926 1.897-1.057 3.648-1.215 3.634-.13.018-.233-1.845.745-3.86.959-2.023 2.477-3.108 2.544-2.996z"/><path transform="rotate(-83.252 224.954 268.317)" style="fill:#fafafa" d="M194.84 230.655h60.23v75.338h-60.23z"/><path style="fill:#263238" d="M265.901 242.842s-.127-.007-.364-.032l-1.051-.113-4.067-.458-15.323-1.76-54.034-6.294.217-.171-7.052 59.809-.001.006-.191-.242 74.812 8.887-.201.159 5.225-43.37 1.481-12.119.399-3.196c.092-.723.15-1.106.15-1.106s-.029.359-.107 1.073l-.354 3.167-1.383 12.089-5.052 43.505-.021.18-.181-.021-74.82-8.814-.217-.025.025-.217.001-.006 7.098-59.804.023-.194.194.023 54.136 6.503 15.267 1.858 4.024.499 1.027.133c.23.031.34.051.34.051z"/><path transform="rotate(-83.252 224.905 268.312)" style="fill:#ebebeb" d="M198.583 233.296h52.647v70.045h-52.647z"/><path style="fill:#e0e0e0" d="m187.034 290.345 28.14-29.624 12.645 22.113 11.493-9.662 17.282 25.402zM237.084 259.276a5.515 5.515 0 1 1-10.954-1.296 5.515 5.515 0 0 1 10.954 1.296z"/><path style="fill:#fafafa" d="M363.423 265.081h-22.222v-71.606h22.222"/><path style="fill:#263238" d="M363.423 193.474c0 .01-.135.021-.397.031l-1.163.03-4.451.055-16.211.089.204-.204.056 35.8-.056 35.806-.204-.204 16.211.089 4.451.055 1.163.03c.262.01.397.02.397.031 0 .01-.135.021-.397.031l-1.163.029-4.451.055-16.211.089-.204.001v-.205l-.056-35.806.056-35.8v-.206l.204.001 16.211.089 4.451.055 1.163.029c.262.01.397.02.397.03z"/><path style="fill:#ebebeb" d="m363.423 260.292-18.539.27v-62.97l18.539-.27z"/><path style="fill:#e0e0e0" d="m345.021 260.376 18.402.186.12-25.429z"/><path transform="rotate(-5.094 172.847 342.596)" style="fill:#fafafa" d="M141.022 317.218h63.784v50.993h-63.784z"/><path style="fill:#263238" d="M202.417 314.488s-.106.016-.307.037l-.891.089-3.45.327-13.003 1.203-45.867 4.171.15-.179 4.545 50.785.001.005-.201-.168 63.535-5.631-.139.167-3.204-36.845-.878-10.299-.224-2.718c-.05-.617-.067-.944-.067-.944s.038.303.098.908l.257 2.686.954 10.258 3.371 36.927.014.153-.154.014-63.529 5.693-.184.017-.017-.184-.001-.005-4.507-50.788-.015-.165.165-.014 45.988-4.015 12.973-1.112 3.421-.285.874-.068c.197-.018.292-.02.292-.02z"/><path transform="rotate(-5.094 172.807 342.598)" style="fill:#ebebeb" d="M143.221 320.432h59.303v44.573h-59.303z"/><path style="fill:#e0e0e0" d="m145.316 367.549 18.172-29.435 14.319 16.127 7.845-10.003 18.733 18.047zM181.392 333.111a4.67 4.67 0 1 1-9.303.83 4.67 4.67 0 0 1 9.303-.83z"/></svg>